<svg width="210" height="32" viewBox="0 0 210 32" fill="none" xmlns="http://www.w3.org/2000/svg">
<path d="M60.161 26.8744H56.4537L58.2893 21.6393H58.3254L60.161 26.8744ZM51.982 31.7825H54.617L55.7264 28.8735H60.8702L61.9605 31.7825H64.7782L59.7979 19.0945H56.9251L51.982 31.7825Z" fill="#145298"/>
<path d="M74.0476 21.4216C73.2471 21.0766 72.3574 20.8759 71.4667 20.8759C70.594 20.8759 69.4676 21.2581 69.4676 22.6393C69.4676 24.8391 75.0286 23.9112 75.0286 28.1653C75.0286 30.9458 72.8299 32 70.267 32C68.8858 32 68.2679 31.8185 67.013 31.5095L67.2498 29.2195C68.1224 29.6919 69.1215 30.0009 70.1216 30.0009C71.0845 30.0009 72.3755 29.5104 72.3755 28.3649C72.3755 25.9475 66.8134 26.9475 66.8134 22.7487C66.8134 19.913 69.0132 18.8768 71.248 18.8768C72.3383 18.8768 73.3564 19.0222 74.2833 19.3312L74.0476 21.4216Z" fill="#145298"/>
<path d="M80.7362 21.0943H77.101V19.0952H86.9161V21.0943H83.281V31.782H80.7362V21.0943Z" fill="#145298"/>
<path d="M91.9508 21.0943H92.7874C94.0593 21.0943 95.4776 21.2217 95.4776 22.7484C95.4776 24.3292 94.0412 24.5118 92.7874 24.5118H91.9508V21.0943ZM89.406 31.782H91.9508V26.5109H92.7683C93.8416 26.5109 94.1686 26.874 94.5317 27.8199L96.0584 31.782H98.8941L96.8578 26.8198C96.6041 26.2561 96.2038 25.566 95.5137 25.5108V25.4747C97.1306 25.2571 98.1307 24.0213 98.1307 22.5307C98.1307 19.0039 94.8778 19.0952 92.1504 19.0952H89.406V31.782Z" fill="#145298"/>
<path d="M108.691 26.8744H104.983L106.819 21.6393H106.855L108.691 26.8744ZM100.512 31.7825H103.148L104.256 28.8735H109.4L110.49 31.7825H113.308L108.328 19.0945H105.456L100.512 31.7825Z" fill="#145298"/>
<path d="M66.9389 5.69795C63.7645 5.92196 57.7024 6.86896 52.7445 7.73421C47.7865 8.59841 45.3659 9.17489 43.2819 9.67493C37.7527 10.9988 29.4611 13.3578 25.0828 14.7582C21.1664 16.0078 10.9298 20.2841 10.6209 20.2194C10.4553 20.1811 10.1208 19.835 10.6421 19.4868C9.60592 20.1769 25.6721 6.01432 51.9886 2.42378V1.90735e-06H0V28.1786C16.0438 21.7386 33.5963 19.2246 51.9886 19.2076V12.4077L52.4345 12.2887H52.4366C62.9343 8.33936 75.1583 6.75218 95.0114 4.64584V3.98124C93.3966 3.99398 81.0728 4.14686 67.1873 5.6799C67.1034 5.68521 67.0238 5.69051 66.9389 5.69795Z" fill="#145298"/>
<path d="M95.0268 3.60286C95.0268 3.60286 82.6828 2.57942 67.0488 3.74512C62.1959 4.10821 57.0256 4.83226 52.2364 5.64974C42.0179 7.39936 33.531 9.57577 33.531 9.57577C33.531 9.57577 32.9142 9.5832 33.4854 9.22012C34.4069 8.6362 41.8958 5.27816 52.2364 3.23871C54.4606 2.79918 56.8101 2.4191 59.2604 2.14307C59.6245 2.10061 59.2604 1.71628 59.2604 1.71628C56.8462 1.85111 54.432 1.99869 52.1664 2.32568C39.3043 4.18359 29.9521 8.09794 24.3306 10.8625C23.9538 11.0472 25.2808 10.2128 17.4107 14.5783C17.4107 14.5783 12.5048 17.8727 12.1682 18.2092C11.6777 18.6997 16.2015 16.6772 19.3982 15.5487C22.3708 14.5019 30.3545 12.2236 32.1742 11.6747C33.4949 11.2755 38.0558 10.3253 42.7431 9.37512C47.2158 8.4674 51.4444 7.88348 51.7077 7.86225C52.0337 7.83783 51.9859 7.86225 51.9859 7.86225C51.9859 7.86225 56.8579 7.0745 57.808 6.89507C59.2795 6.6201 67.3513 5.65505 67.4352 5.64868C81.3196 4.11564 95.2603 3.98081 95.0119 3.98081L95.0268 3.60286Z" fill="#BCC2DE"/>
<path d="M119.497 19.087H118.404V20.5457H119.497V19.087ZM118.404 31.7612H119.497V22.9069H118.404V31.7612Z" fill="#145298"/>
<path d="M122.258 24.9903C122.258 24.3129 122.258 23.6186 122.189 22.9073H123.247V24.486H123.282C123.646 23.6876 124.307 22.6981 126.147 22.6981C128.335 22.6981 129.168 24.1568 129.168 26.1008V31.7615H128.075V26.3789C128.075 24.7121 127.484 23.6356 125.973 23.6356C123.976 23.6356 123.351 25.3894 123.351 26.8651V31.7615H122.258V24.9903Z" fill="#145298"/>
<path d="M135.731 23.8442H133.717V29.574C133.717 30.3724 134.012 31.0328 134.897 31.0328C135.314 31.0328 135.592 30.9457 135.904 30.8236L135.974 31.726C135.713 31.8301 135.176 31.9702 134.636 31.9702C132.692 31.9702 132.623 30.6325 132.623 29.0177V23.8442H130.886V22.9068H132.623V20.7707L133.717 20.3896V22.9068H135.731V23.8442Z" fill="#145298"/>
<path d="M138.23 26.7091C138.23 25.2503 139.22 23.6356 140.835 23.6356C142.466 23.6356 143.092 25.1633 143.092 26.7091H138.23ZM143.63 30.3718C143.11 30.702 141.946 31.0322 141.147 31.0322C139.238 31.0322 138.23 29.5214 138.23 27.6465H144.29V27.0913C144.29 24.7121 143.266 22.6981 140.766 22.6981C138.526 22.6981 137.033 24.625 137.033 27.3344C137.033 29.9907 138.126 31.9696 141.061 31.9696C141.876 31.9696 142.866 31.7955 143.63 31.4834V30.3718Z" fill="#145298"/>
<path d="M146.374 24.8858C146.374 23.9133 146.374 23.5491 146.303 22.9068H147.398V24.6076H147.432C147.832 23.6182 148.579 22.6988 149.707 22.6988C149.967 22.6988 150.279 22.7508 150.47 22.8017V23.9483C150.245 23.8793 149.95 23.8443 149.672 23.8443C147.936 23.8443 147.467 25.7882 147.467 27.386V31.7611H146.374V24.8858Z" fill="#145298"/>
<path d="M152.464 24.9903C152.464 24.3129 152.464 23.6186 152.395 22.9073H153.454V24.486H153.489C153.853 23.6876 154.513 22.6981 156.353 22.6981C158.541 22.6981 159.374 24.1568 159.374 26.1008V31.7615H158.281V26.3789C158.281 24.7121 157.691 23.6356 156.18 23.6356C154.183 23.6356 153.558 25.3894 153.558 26.8651V31.7615H152.464V24.9903Z" fill="#145298"/>
<path d="M167.1 27.8374C167.1 28.7929 167.048 31.032 164.479 31.032C163.472 31.032 162.638 30.5978 162.638 29.4342C162.638 27.4903 164.895 27.2992 166.788 27.2992H167.1V27.8374ZM167.204 31.7613H168.281C168.194 31.153 168.194 30.6158 168.194 29.9034V25.9976C168.194 23.6885 167.275 22.6979 165.086 22.6979C164.305 22.6979 163.16 22.9761 162.482 23.3063V24.3647C163.299 23.8445 164.166 23.6354 165.086 23.6354C166.562 23.6354 167.1 24.3998 167.1 25.9105V26.3617H166.892C164.6 26.3617 161.441 26.5008 161.441 29.4692C161.441 30.2686 161.84 31.9694 164.357 31.9694C165.451 31.9694 166.684 31.3961 167.169 30.3376H167.204V31.7613Z" fill="#145298"/>
<path d="M174.618 23.8442H172.604V29.574C172.604 30.3724 172.899 31.0328 173.785 31.0328C174.202 31.0328 174.479 30.9457 174.792 30.8236L174.861 31.726C174.601 31.8301 174.063 31.9702 173.525 31.9702C171.58 31.9702 171.511 30.6325 171.511 29.0177V23.8442H169.775V22.9068H171.511V20.7707L172.604 20.3896V22.9068H174.618V23.8442Z" fill="#145298"/>
<path d="M176.58 22.9069H177.673V31.7612H176.58V22.9069ZM177.673 20.5457H176.58V19.087H177.673V20.5457Z" fill="#145298"/>
<path d="M180.955 27.3339C180.955 25.2849 181.979 23.6362 183.889 23.6362C185.799 23.6362 186.823 25.2849 186.823 27.3339C186.823 29.3829 185.799 31.0328 183.889 31.0328C181.979 31.0328 180.955 29.3829 180.955 27.3339ZM179.756 27.3339C179.756 29.7471 181.024 31.9702 183.889 31.9702C186.754 31.9702 188.021 29.7471 188.021 27.3339C188.021 24.9208 186.754 22.6987 183.889 22.6987C181.024 22.6987 179.756 24.9208 179.756 27.3339Z" fill="#145298"/>
<path d="M190.087 24.9903C190.087 24.3129 190.087 23.6186 190.017 22.9073H191.077V24.486H191.112C191.476 23.6876 192.136 22.6981 193.976 22.6981C196.164 22.6981 196.998 24.1568 196.998 26.1008V31.7615H195.904V26.3789C195.904 24.7121 195.314 23.6356 193.802 23.6356C191.806 23.6356 191.181 25.3894 191.181 26.8651V31.7615H190.087V24.9903Z" fill="#145298"/>
<path d="M204.723 27.8374C204.723 28.7929 204.671 31.032 202.102 31.032C201.094 31.032 200.261 30.5978 200.261 29.4342C200.261 27.4903 202.518 27.2992 204.411 27.2992H204.723V27.8374ZM204.827 31.7613H205.904C205.818 31.153 205.818 30.6158 205.818 29.9034V25.9976C205.818 23.6885 204.897 22.6979 202.709 22.6979C201.928 22.6979 200.782 22.9761 200.105 23.3063V24.3647C200.921 23.8445 201.789 23.6354 202.709 23.6354C204.185 23.6354 204.723 24.3998 204.723 25.9105V26.3617H204.515C202.223 26.3617 199.063 26.5008 199.063 29.4692C199.063 30.2686 199.463 31.9694 201.98 31.9694C203.074 31.9694 204.307 31.3961 204.793 30.3376H204.827V31.7613Z" fill="#145298"/>
<path d="M208.421 18.7398H209.515V31.7611H208.421V18.7398Z" fill="#145298"/>
</svg>
