<svg width="113" height="32" viewBox="0 0 113 32" fill="none" xmlns="http://www.w3.org/2000/svg">
<path d="M30.7879 30.2887H0.000366211V0H30.7879V30.2887Z" fill="white"/>
<path d="M12.3807 20.4435L15.6626 17.8374C15.1122 17.1578 14.5898 16.4723 14.0975 15.7645C10.3015 10.3614 8.05249 4.86467 9.67642 0H0V5.25013L12.3807 20.4435Z" fill="#F15A22"/>
<path d="M17.5557 12.5927C17.7611 10.8778 18.2895 7.64336 21.4868 5.24073C24.2553 3.16712 27.7198 2.76829 30.788 4.05019V0.000244141H13.7061C12.579 4.92803 15.5399 10.3431 17.5557 12.5927Z" fill="#F15A22"/>
<path d="M21.6994 7.65073L21.6873 7.65908C18.4727 10.2288 19.2631 14.2617 22.2558 17.8779C24.5607 20.6689 27.6448 22.6282 30.7877 21.1428V9.23584C27.9641 6.39056 24.5751 5.34912 21.6994 7.65073Z" fill="#F15A22"/>
<path d="M0.00012207 11.4609V30.2854H0.00465187L9.31944 22.8733L0.00012207 11.4609Z" fill="#F15A22"/>
<path d="M16.9412 19.3306C16.0262 20.0703 14.896 20.9757 13.642 21.9835L14.8522 23.466C16.6015 25.6183 19.1616 29.3474 22.3317 28.338L22.4495 28.4798L20.1967 30.2853H30.7881V23.1242C25.3388 26.0371 20.6534 23.3857 16.9412 19.3306Z" fill="#F15A22"/>
<path d="M11.8296 25.9505L10.5756 24.4161C8.00496 26.4459 5.30671 28.5737 3.11655 30.2856H14.9673C14.198 28.6792 12.7998 27.1403 11.8296 25.9505Z" fill="#F15A22"/>
<path d="M56.4309 12.6517C59.268 12.1638 61.1147 9.75375 61.1147 6.67823C61.1147 2.58003 57.509 0.000610352 51.3379 0.000610352H39.1248V0.140301C41.6199 1.48608 41.5625 3.65845 41.5625 5.73356V24.509C41.5625 26.6197 41.6199 28.8144 39.1248 30.1386V30.2754H45.006C50.7513 30.2754 55.158 30.3718 58.4466 28.8509C61.9406 27.2355 64.0576 24.3368 64.0576 20.8023C64.0576 16.2911 60.6459 13.5237 56.4309 12.6517ZM46.3521 2.79331L50.2175 2.85571C53.0841 2.85571 56.0149 4.23637 56.0149 7.41214C56.0149 11.1858 53.4208 12.1944 49.7253 12.1944L46.3521 12.1986V12.1944V2.79331ZM50.0778 27.1642L46.3521 27.1684V15.2318V15.0624L50.3579 15.0436C55.0198 15.0436 58.8679 16.7467 58.8679 21.2118C58.8679 25.584 54.8281 27.1642 50.0778 27.1642Z" fill="#006885"/>
<path d="M73.4209 24.5105C73.4209 27.0936 73.3733 28.9274 75.8534 30.3615V30.4916H67.5744V30.3615C70.0515 28.9274 70.0085 27.0936 70.0085 24.5105V6.11318C70.0085 3.54937 70.0515 1.5166 67.5774 0.142616V0.000854492H74.4499V0.0461544C74.6326 0.595002 74.9369 0.903228 75.149 1.20031C75.3695 1.487 75.8028 2.11606 75.8028 2.11606L91.5681 23.0186V5.93428C91.5681 3.35861 91.6088 1.5167 89.1371 0.142711V0.000950062H97.3662V0.142711C94.936 1.5167 94.936 3.35861 94.936 5.93428V32C93.4328 31.4133 89.242 27.9806 86.2576 24.0309C80.9004 16.953 73.4209 7.10924 73.4209 7.10924V24.5105Z" fill="#006885"/>
<path d="M105.042 5.48864C105.042 3.37269 105.005 1.48626 102.615 0.142712V0.00012207H112.301V0.142712C109.901 1.4454 109.88 3.4143 109.88 5.48864V24.8396C109.88 26.9073 109.824 29.0032 112.301 30.3512V30.4878H102.615V30.3512C105.107 28.9839 105.042 26.9252 105.042 24.8523V5.48864Z" fill="#006885"/>
</svg>
