<svg width="32" height="32" viewBox="0 0 32 32" fill="none" xmlns="http://www.w3.org/2000/svg">
<g clip-path="url(#clip0_142_165)">
<path d="M18.8217 15.3264C18.3189 15.2017 17.8165 15.1108 17.3154 15.0519C18.0887 14.4834 18.6094 13.4306 18.6094 12.2276C18.6094 10.5652 17.6096 9.53256 16.0001 9.53256C14.3906 9.53256 13.3907 10.5652 13.3907 12.2276C13.3907 13.4281 13.9091 14.4789 14.6797 15.0484C14.1743 15.1072 13.6721 15.1994 13.1742 15.3274C11.6512 15.719 10.8125 16.5649 10.8125 17.7094V21.2961C10.8125 21.9421 11.338 22.4676 11.984 22.4676H20.0161C20.662 22.4676 21.1876 21.9421 21.1876 21.2961V17.7094C21.1875 16.5679 20.3253 15.6994 18.8217 15.3264ZM16 10.5326C16.7342 10.5326 17.6094 10.8266 17.6094 12.2276C17.6094 13.4593 16.8724 14.4999 16 14.4999C15.1276 14.4999 14.3906 13.4593 14.3906 12.2276C14.3906 10.8266 15.2658 10.5326 16 10.5326ZM20.1875 21.296C20.1875 21.3889 20.109 21.4675 20.016 21.4675H19.0574V18.6882C19.0574 18.4121 18.8336 18.1882 18.5574 18.1882C18.2813 18.1882 18.0574 18.4121 18.0574 18.6882V21.4675H13.9425V18.6882C13.9425 18.4121 13.7186 18.1882 13.4425 18.1882C13.1664 18.1882 12.9425 18.4121 12.9425 18.6882V21.4675H11.984C11.8911 21.4675 11.8125 21.3889 11.8125 21.296V17.7094C11.8125 16.8834 12.6884 16.4849 13.4232 16.2959C14.2621 16.0802 15.1149 15.9724 15.9759 15.9724C16.8381 15.9724 17.7086 16.0806 18.5809 16.2969C19.1809 16.4458 20.1875 16.8272 20.1875 17.7094V21.296ZM15.5 7.54913V4.58081C15.5 3.4335 16.4334 2.50006 17.5807 2.50006H22.0417C22.3178 2.50006 22.5417 2.72394 22.5417 3.00006C22.5417 3.27619 22.3178 3.50006 22.0417 3.50006H17.5807C16.9848 3.50006 16.5 3.98487 16.5 4.58081V7.54913C16.5 7.82525 16.2761 8.04912 16 8.04912C15.7239 8.04912 15.5 7.82525 15.5 7.54913ZM10.1591 16C10.1591 16.2761 9.93525 16.5 9.65913 16.5H6.76831C5.62094 16.5 4.6875 15.5666 4.6875 14.4192V13.4271C4.6875 13.151 4.91138 12.9271 5.1875 12.9271C5.46362 12.9271 5.6875 13.151 5.6875 13.4271V14.4192C5.6875 15.0152 6.17231 15.5 6.76825 15.5H9.65906C9.93525 15.5 10.1591 15.7239 10.1591 16ZM16.5 24.4509V27.4192C16.5 28.5665 15.5666 29.5 14.4192 29.5H11.5962C11.3201 29.5 11.0962 29.2761 11.0962 29C11.0962 28.7239 11.3201 28.5 11.5962 28.5H14.4192C15.0151 28.5 15.4999 28.0151 15.4999 27.4192V24.4509C15.4999 24.1748 15.7238 23.9509 15.9999 23.9509C16.2761 23.9509 16.5 24.1748 16.5 24.4509ZM26.3125 18.5729V17.5808C26.3125 17.2939 26.1996 17.0229 25.9946 16.8179C25.7896 16.6129 25.5186 16.5 25.2318 16.5H22.3409C22.0648 16.5 21.8409 16.2761 21.8409 16C21.8409 15.7239 22.0648 15.5 22.3409 15.5H25.2318C25.7858 15.5 26.3079 15.7169 26.7017 16.1108C27.0956 16.5047 27.3125 17.0268 27.3125 17.5808V18.5729C27.3125 18.849 27.0886 19.0729 26.8125 19.0729C26.5363 19.0729 26.3125 18.849 26.3125 18.5729ZM29.4541 25.2693C29.0109 25.1593 28.568 25.0769 28.1262 25.0216C28.8194 24.4743 29.2812 23.5082 29.2812 22.4094C29.2812 21.3868 28.8816 20.7981 28.5463 20.4841C28.1106 20.0763 27.5111 19.8606 26.8124 19.8606C26.1138 19.8606 25.5142 20.0762 25.0786 20.4841C24.7434 20.798 24.3437 21.3867 24.3437 22.4094C24.3437 23.506 24.8036 24.4703 25.4944 25.0181C25.0489 25.0736 24.606 25.1574 24.1667 25.2703C22.75 25.6346 21.9375 26.4567 21.9375 27.5257V30.8733C21.9375 31.4946 22.4429 32 23.0642 32H30.5607C31.182 32 31.6874 31.4946 31.6874 30.8733V27.5257C31.6875 26.4438 30.8734 25.6213 29.4541 25.2693ZM26.8125 20.8607C27.4826 20.8607 28.2812 21.1294 28.2812 22.4094C28.2812 23.5409 27.6086 24.4969 26.8125 24.4969C26.0164 24.4969 25.3438 23.5409 25.3438 22.4094C25.3438 21.1293 26.1424 20.8607 26.8125 20.8607ZM30.6875 30.8733C30.6875 30.942 30.6295 31 30.5608 31H29.6994V28.4393C29.6994 28.1632 29.4755 27.9393 29.1994 27.9393C28.9233 27.9393 28.6994 28.1632 28.6994 28.4393V31H24.9255V28.4393C24.9255 28.1632 24.7016 27.9393 24.4255 27.9393C24.1494 27.9393 23.9255 28.1632 23.9255 28.4393V31H23.0642C22.9955 31 22.9375 30.9419 22.9375 30.8733V27.5257C22.9375 26.7762 23.7414 26.4122 24.4158 26.2388C25.1961 26.0381 25.9893 25.9379 26.7901 25.9379C27.5922 25.9379 28.4018 26.0385 29.2132 26.2398C29.7638 26.3764 30.6874 26.7251 30.6874 27.5257V30.8733H30.6875ZM7.82912 25.2693C7.38594 25.1593 6.94306 25.0768 6.50125 25.0216C7.1945 24.4743 7.65625 23.5083 7.65625 22.4094C7.65625 21.3869 7.25656 20.7981 6.92131 20.4842C6.48562 20.0763 5.88613 19.8607 5.18744 19.8607C4.48881 19.8607 3.88925 20.0763 3.45362 20.4842C3.11844 20.7981 2.71875 21.3867 2.71875 22.4094C2.71875 23.506 3.17862 24.4702 3.8695 25.0181C3.42394 25.0736 2.98112 25.1574 2.54187 25.2703C1.12506 25.6346 0.3125 26.4567 0.3125 27.5257V30.8733C0.3125 31.4946 0.817937 32 1.43925 32H8.93581C9.55706 32 10.0625 31.4946 10.0625 30.8733V27.5257C10.0625 26.4438 9.24844 25.6213 7.82912 25.2693ZM5.1875 20.8607C5.85756 20.8607 6.65625 21.1294 6.65625 22.4094C6.65625 23.5409 5.98362 24.4969 5.1875 24.4969C4.39138 24.4969 3.71875 23.5409 3.71875 22.4094C3.71875 21.1293 4.51744 20.8607 5.1875 20.8607ZM9.0625 30.8733C9.0625 30.942 9.0045 31 8.93581 31H8.07444V28.4393C8.07444 28.1632 7.85056 27.9393 7.57444 27.9393C7.29831 27.9393 7.07444 28.1632 7.07444 28.4393V31H3.30056V28.4393C3.30056 28.1632 3.07669 27.9393 2.80056 27.9393C2.52444 27.9393 2.30056 28.1632 2.30056 28.4393V31H1.43925C1.37056 31 1.31256 30.9419 1.31256 30.8733V27.5257C1.31256 26.7762 2.1165 26.4122 2.79087 26.2388C3.57113 26.0381 4.36438 25.9379 5.16512 25.9379C5.96725 25.9379 6.77688 26.0385 7.58831 26.2398C8.13888 26.3764 9.0625 26.7251 9.0625 27.5257V30.8733ZM29.4541 5.40856C29.0109 5.29862 28.568 5.21619 28.1262 5.16087C28.8194 4.61356 29.2812 3.64756 29.2812 2.54869C29.2812 1.52612 28.8816 0.937375 28.5463 0.623438C28.1107 0.215563 27.5111 0 26.8125 0C26.1139 0 25.5143 0.215562 25.0787 0.6235C24.7434 0.937375 24.3438 1.52612 24.3438 2.54875C24.3438 3.64537 24.8036 4.60962 25.4945 5.1575C25.0489 5.21294 24.6061 5.29675 24.1668 5.40969C22.75 5.77394 21.9375 6.596 21.9375 7.66512V11.0127C21.9375 11.6339 22.4429 12.1394 23.0642 12.1394H30.5607C31.182 12.1394 31.6874 11.6339 31.6874 11.0127V7.66512C31.6875 6.58313 30.8734 5.76069 29.4541 5.40856ZM26.8125 1C27.4826 1 28.2812 1.26869 28.2812 2.54869C28.2812 3.68019 27.6086 4.63619 26.8125 4.63619C26.0164 4.63619 25.3438 3.68019 25.3438 2.54869C25.3438 1.26869 26.1424 1 26.8125 1ZM30.6875 11.0126C30.6875 11.0813 30.6295 11.1393 30.5608 11.1393H29.6994V8.57862C29.6994 8.3025 29.4755 8.07862 29.1994 8.07862C28.9233 8.07862 28.6994 8.3025 28.6994 8.57862V11.1393H24.9255V8.57862C24.9255 8.3025 24.7016 8.07862 24.4255 8.07862C24.1494 8.07862 23.9255 8.3025 23.9255 8.57862V11.1393H23.0642C22.9955 11.1393 22.9375 11.0813 22.9375 11.0126V7.66506C22.9375 6.91556 23.7414 6.5515 24.4158 6.37806C25.1961 6.17744 25.9893 6.07719 26.7901 6.07719C27.5922 6.07719 28.4018 6.17781 29.2132 6.37913C29.7638 6.51575 30.6874 6.86438 30.6874 7.66506V11.0126H30.6875ZM1.43925 12.1393H8.93581C9.55706 12.1393 10.0625 11.6339 10.0625 11.0126V7.66506C10.0625 6.58306 9.24844 5.76063 7.82912 5.40856C7.38594 5.29862 6.94306 5.21613 6.50125 5.16087C7.1945 4.61356 7.65631 3.64762 7.65631 2.54869C7.65631 1.52612 7.25662 0.937375 6.92137 0.623438C6.48569 0.215563 5.88613 0 5.1875 0C4.48887 0 3.88931 0.215562 3.45369 0.6235C3.11844 0.937375 2.71875 1.52612 2.71875 2.54869C2.71875 3.64525 3.17862 4.6095 3.8695 5.15737C3.42394 5.21281 2.98112 5.29663 2.54187 5.40956C1.12506 5.77394 0.3125 6.596 0.3125 7.66512V11.0127C0.3125 11.6339 0.817937 12.1393 1.43925 12.1393ZM5.1875 1C5.85756 1 6.65625 1.26869 6.65625 2.54869C6.65625 3.68019 5.98362 4.63619 5.1875 4.63619C4.39138 4.63619 3.71875 3.68019 3.71875 2.54869C3.71875 1.26869 4.51744 1 5.1875 1ZM1.3125 7.66512C1.3125 6.91563 2.11644 6.55156 2.79081 6.37813C3.57106 6.1775 4.36431 6.07725 5.16506 6.07725C5.96719 6.07725 6.77681 6.17788 7.58825 6.37919C8.13881 6.51581 9.06244 6.86444 9.06244 7.66512V11.0127C9.06244 11.0814 9.00444 11.1394 8.93575 11.1394H8.07438V8.57869C8.07438 8.30256 7.8505 8.07869 7.57438 8.07869C7.29825 8.07869 7.07438 8.30256 7.07438 8.57869V11.1394H3.30056V8.57869C3.30056 8.30256 3.07669 8.07869 2.80056 8.07869C2.52444 8.07869 2.30056 8.30256 2.30056 8.57869V11.1394H1.43925C1.37056 11.1394 1.31256 11.0813 1.31256 11.0127L1.3125 7.66512Z" fill="#F9F7F7"/>
</g>
<defs>
<clipPath id="clip0_142_165">
<rect width="32" height="32" fill="white"/>
</clipPath>
</defs>
</svg>
