<svg width="32" height="32" viewBox="0 0 32 32" fill="none" xmlns="http://www.w3.org/2000/svg">
<g clip-path="url(#clip0_32_105)">
<path d="M11.64 15.9211C14.7328 15.9211 17.24 13.205 17.24 9.85452C17.24 6.50402 14.7328 3.7879 11.64 3.7879C8.5472 3.7879 6.03999 6.50402 6.03999 9.85452C6.03999 13.205 8.5472 15.9211 11.64 15.9211Z" stroke="white" stroke-linecap="round" stroke-linejoin="round"/>
<path d="M1.56 32.9077L11.64 32.9077L21.72 32.9077L21.72 31.5922C21.7022 29.7426 21.2519 27.928 20.4112 26.3181C19.5706 24.7081 18.3669 23.3552 16.9128 22.3858C15.4586 21.4163 13.8014 20.862 12.0959 20.7745C11.9438 20.7667 11.7918 20.7627 11.64 20.7623C11.4882 20.7627 11.3362 20.7667 11.1841 20.7745C9.4786 20.862 7.82136 21.4163 6.36719 22.3858C4.91305 23.3552 3.70943 24.7081 2.86876 26.3181C2.02811 27.928 1.57783 29.7426 1.56 31.5922L1.56 32.9077Z" stroke="white" stroke-linecap="round" stroke-linejoin="round"/>
<path d="M20.6 15.9211C23.6928 15.9211 26.2 13.205 26.2 9.85452C26.2 6.50402 23.6928 3.7879 20.6 3.7879" stroke="white" stroke-linecap="round" stroke-linejoin="round"/>
<path d="M26.2 32.9079L30.68 32.9079L30.68 31.5922C30.6621 29.7426 30.2118 27.928 29.3712 26.3181C28.5305 24.708 27.3269 23.3552 25.8727 22.3858C24.9328 21.7591 23.9078 21.3059 22.84 21.0402" stroke="white" stroke-linecap="round" stroke-linejoin="round"/>
</g>
<defs>
<clipPath id="clip0_32_105">
<rect width="31.36" height="31.36" fill="white" transform="translate(0.439995 0.427917)"/>
</clipPath>
</defs>
</svg>
