<svg width="174" height="32" viewBox="0 0 174 32" fill="none" xmlns="http://www.w3.org/2000/svg">
<path d="M145.122 13.3131C141.635 11.4917 138.741 11.3539 137.387 11.3539H132.678L132.426 10.9106H137.962C138.346 10.9106 142.935 10.8447 145.637 11.5696C149.016 12.4743 151.353 14.2477 151.808 14.5473C152.264 14.8409 158.429 19.2565 158.429 19.2565C158.429 19.2565 157.392 20.3169 156.38 20.3169C155.421 20.3169 154.384 19.58 154.384 19.58C154.384 19.58 151.083 17.2014 150.58 16.848C150.077 16.4945 147.471 14.5533 145.116 13.3191L145.122 13.3131Z" fill="#358E9D"/>
<path d="M144.87 16.794C147.201 18.3398 148.573 19.4721 149.022 19.7957C149.466 20.1192 151.539 21.5991 151.539 21.5991C151.539 21.5991 152.491 22.342 153.66 22.342C154.546 22.342 155.637 21.3115 155.637 21.3115C155.637 21.3115 150.688 17.8185 150.239 17.507C149.789 17.1894 148.201 15.9373 145.242 15.1584C142.767 14.5053 139.25 14.5233 139.017 14.5233H134.511L134.775 14.9786C134.775 14.9786 138.172 14.9846 138.43 14.9846C138.975 14.9846 142.414 15.1524 144.87 16.782V16.794Z" fill="#358E9D"/>
<path d="M145.631 9.66433C148.633 11.276 151.605 13.5048 152.156 13.9062C152.713 14.3076 157.224 17.5369 157.224 17.5369C157.224 17.5369 158.279 18.2499 159.243 18.2499C160.184 18.2499 161.251 17.2074 161.251 17.2074C161.251 17.2074 154.049 12.0249 153.402 11.5696C152.755 11.1142 150.161 8.98731 145.997 7.99874C142.737 7.17194 137.297 7.2678 136.92 7.2678H130.329L130.593 7.72314H136.345C137.537 7.72314 142.132 7.78306 145.625 9.66433H145.631Z" fill="#358E9D"/>
<path d="M171.729 9.59243C170.843 9.43666 169.674 9.36476 169.674 9.36476L168.081 9.8201L167.17 9.0592C167.17 9.0592 169.069 9.20899 169.596 9.28687C170.052 9.28687 169.902 9.0592 169.668 8.59787C169.441 8.14253 168.913 8.14253 168.913 8.14253H164.126C164.126 8.14253 163.27 8.14852 162.287 7.92085C161.298 7.69318 160.909 6.95026 160.909 6.95026C160.526 7.83098 162.047 8.8555 162.047 8.8555L166.787 12.2526C167.398 12.636 167.925 12.3305 167.925 12.3305C167.925 12.3305 169.141 11.7194 169.824 11.5696C170.435 11.4198 172.329 11.3419 172.556 11.4198C173.089 11.4977 173.695 12.0309 173.695 12.0309C174 9.89799 172.628 9.76019 171.723 9.59243H171.729Z" fill="#202D5C"/>
<path d="M146.566 2.55263C149.867 4.00253 154.588 7.53142 155.277 8.03469C155.972 8.53796 162.772 13.4089 162.772 13.4089C162.772 13.4089 163.839 14.1698 164.827 14.1698C165.816 14.1698 166.793 13.1753 166.793 13.1753C166.793 13.1753 157.182 6.26725 156.487 5.76997C155.792 5.27269 152.605 2.58858 146.68 1.02484C142.624 -0.0476079 135.65 0.000322689 134.841 0.000322689H126.141L126.411 0.461655H134.385C136.399 0.461655 142.204 0.629412 146.572 2.55263H146.566Z" fill="#202D5C"/>
<path d="M146.063 6.09949C142.498 4.31407 138.1 4.09239 135.542 4.09239H128.502L128.238 3.63705H135.889C136.716 3.63705 142.51 3.57714 146.344 4.44588C150.766 5.45242 154.57 8.35222 154.966 8.62783C155.343 8.89144 164.072 15.1524 164.072 15.1524C164.072 15.1524 163.078 16.1769 162.005 16.1769C161.023 16.1769 159.956 15.416 159.956 15.416C159.956 15.416 154.277 11.3419 153.725 10.9525C153.18 10.563 149.382 7.75309 146.063 6.09349V6.09949Z" fill="#202D5C"/>
<path d="M18.2915 26.3322C18.2915 26.3322 17.7583 26.2124 17.1112 26.2124C15.6733 26.2124 14.6069 26.8475 14.3133 27.8061C14.2474 27.9859 14.2294 28.3873 14.2294 28.591C14.2294 29.8072 15.0802 30.4902 16.1227 30.4902C16.3204 30.4902 16.6499 30.4423 16.9315 30.3345C17.6804 30.0589 18.2915 29.5556 18.2915 28.7887V26.3322ZM19.2801 31.7724C19.1842 31.7724 18.7648 31.7963 18.5911 31.5986C18.4233 31.4429 18.4233 31.2092 18.4233 31.0175V30.4064C17.7942 31.335 16.7338 31.9641 15.1401 31.9281C12.6357 31.8563 12.0845 29.8911 12.0845 28.8067C12.0845 28.4232 12.1205 27.6923 12.6896 26.9134C13.5763 25.6672 15.4157 25.2598 17.0573 25.2598C17.7583 25.2598 18.2915 25.3617 18.2915 25.3617V24.2652C18.2915 23.8758 18.2915 23.2108 17.9021 22.7434C17.5666 22.354 16.9495 22.0604 15.853 22.0604C14.1455 22.0604 13.0251 23.025 13.0251 23.025L13.2288 21.7309C13.2288 21.7309 14.3852 20.946 16.2425 20.946C17.7942 20.946 18.8667 21.3714 19.4958 22.0065C20.2207 22.7614 20.4005 23.4564 20.4005 24.8464V31.7724H19.2801Z" fill="#474343"/>
<path d="M26.1821 22.3959C24.3847 22.7374 24.187 24.1573 24.187 25.1579V31.7723H22.078V22.318C22.078 21.4073 21.4789 21.2156 21.4789 21.2156H23.5639C24.0252 21.2156 24.187 21.4732 24.187 21.7608V22.336C24.2529 22.1443 25.0078 21.1377 26.4038 21.0898C26.8591 21.0718 27.3804 21.1137 27.662 21.2815L27.9376 22.6116C27.626 22.4378 27.0389 22.2281 26.1761 22.3899L26.1821 22.3959Z" fill="#474343"/>
<path d="M36.3014 31.7724C36.2295 31.7724 35.7922 31.7963 35.5945 31.5986C35.4387 31.4428 35.4387 31.1552 35.4387 31.0174V30.4063C34.8695 31.335 33.845 31.9221 32.437 31.9221C31.3346 31.9221 30.5857 31.6705 29.9327 30.9635C29.2437 30.1966 29.0699 29.244 29.0699 27.9559V22.1623C29.0699 21.4134 28.4228 21.2156 28.4408 21.2216H30.406C30.8913 21.2216 31.1848 21.4673 31.1848 21.8327V28.1955C31.1848 30.0768 31.742 30.61 33.0601 30.61C34.1446 30.61 35.3248 29.8791 35.3248 28.7587V21.2276H37.4158V31.7783H36.3074L36.3014 31.7724Z" fill="#474343"/>
<path d="M65.1736 31.7724C64.7363 31.7724 64.4727 31.5866 64.4727 31.0534V18.6034C64.4727 17.8185 63.8675 17.519 63.8675 17.519H65.9046C66.5097 17.519 66.7793 17.8126 66.7793 18.2499V31.7783H65.1617L65.1736 31.7724Z" fill="#474343"/>
<path d="M93.908 22.0963C91.7811 22.0724 91.4097 24.2652 91.4097 26.6018C91.4097 29.5076 92.1406 30.8976 93.908 30.8976C95.4658 30.8976 96.1967 29.1002 96.1967 26.6018C96.1967 24.5648 96.005 22.1203 93.908 22.0963ZM93.8661 31.9281C90.4151 31.9101 89.1749 29.7712 89.1749 26.5539C89.1749 23.6181 90.4151 20.976 93.8661 20.9939C97.359 21.0179 98.4255 23.6541 98.4255 26.5539C98.4255 29.5196 96.7479 31.9521 93.8661 31.9281Z" fill="#474343"/>
<path d="M125.392 31.0054C124.644 31.6405 123.655 31.9521 122.553 31.9641H122.439C120.785 31.9641 119.88 31.5207 119.485 31.293L119.185 30.0408C119.185 30.0408 120.629 30.9875 122.133 30.9875C123.583 30.9875 124.41 30.2086 124.314 28.9205C124.164 26.8654 119.407 27.3567 119.407 23.9537C119.407 22.0844 120.929 21.1018 122.798 21.0778H122.918C124.847 21.0778 125.56 21.7548 125.56 21.7548L125.854 22.9231C125.854 22.9231 125.027 22.1083 123.373 22.1083C121.594 22.1083 121.42 23.5343 121.456 23.9297C121.57 24.9542 122.349 25.1999 123.745 25.811C125.201 26.4341 126.351 27.2369 126.351 28.7827C126.351 29.7652 125.974 30.5202 125.404 31.0054H125.392Z" fill="#474343"/>
<path d="M128.244 31.7723C127.855 31.7723 127.645 31.5686 127.645 31.2211V22.1682C127.645 21.4732 126.986 21.2216 126.986 21.2216H129.137C129.568 21.2216 129.736 21.4492 129.736 21.8506V31.7723H128.244Z" fill="#474343"/>
<path d="M70.3741 21.2216C70.7755 21.2216 70.9792 21.4133 70.9792 21.7668V22.5936C71.5544 21.6589 72.5789 21.0658 73.9809 21.0658C75.0833 21.0658 75.8322 21.3174 76.4853 22.0304C77.1743 22.8033 77.348 23.7499 77.348 25.044V31.7783H76.0898C75.5506 31.7783 75.2391 31.4128 75.2391 30.9095V24.8164C75.2391 22.9351 74.6759 22.4019 73.3698 22.4019C72.2853 22.4019 71.0991 23.1328 71.0991 24.2592V31.7843H69.0081V22.1442C69.0081 21.4013 68.4269 21.2336 68.4269 21.2336H70.3801L70.3741 21.2216Z" fill="#474343"/>
<path d="M137.315 26.3322C137.315 26.3322 136.782 26.2124 136.129 26.2124C134.691 26.2124 133.625 26.8475 133.331 27.8061C133.265 27.9859 133.253 28.3873 133.253 28.591C133.253 29.8072 134.098 30.4902 135.146 30.4902C135.344 30.4902 135.68 30.4423 135.955 30.3345C136.704 30.0589 137.315 29.5556 137.315 28.7887V26.3322ZM138.304 31.7724C138.202 31.7724 137.795 31.7963 137.609 31.5986C137.459 31.4429 137.459 31.2092 137.459 31.0175V30.4064C136.824 31.335 135.757 31.9641 134.164 31.9281C131.659 31.8563 131.114 29.8911 131.114 28.8067C131.114 28.4232 131.144 27.6923 131.725 26.9134C132.606 25.6672 134.445 25.2598 136.081 25.2598C136.794 25.2598 137.327 25.3617 137.327 25.3617V24.2652C137.327 23.8758 137.387 23.2587 136.95 22.7375C136.632 22.336 135.961 22.0484 134.823 22.0604C132.87 22.0964 132.061 23.025 132.061 23.025L132.271 21.7309C132.271 21.7309 133.421 20.946 135.278 20.946C136.83 20.946 137.896 21.3714 138.525 22.0065C139.256 22.7614 139.43 23.4564 139.43 24.8464V31.7724H138.31H138.304Z" fill="#474343"/>
<path d="M45.57 24.7745C45.57 24.1753 45.4921 23.3006 45.0128 22.7973C44.6773 22.4438 44.1501 22.1982 43.3952 22.1982C41.3461 22.1982 41.1125 24.9242 41.1125 26.3921V26.5479C41.1304 28.6269 41.7236 30.6879 43.4371 30.6879C44.3658 30.6879 45.0128 30.3284 45.57 29.6274V24.7685V24.7745ZM46.2231 31.7723C45.8097 31.7723 45.6659 31.6345 45.6659 31.2511V30.7298C44.875 31.4368 44.1081 31.9041 42.9518 31.9221H42.9099C39.8962 31.9221 38.8477 29.3758 38.8477 26.5479C38.8477 24.427 39.6626 20.9879 43.0117 20.9879C45.0188 20.9879 45.576 22.1982 45.576 22.1982V18.6034C45.576 17.8485 44.9529 17.459 44.9529 17.459H46.5885C47.2176 17.459 47.685 17.8964 47.685 18.3697V31.7723H46.2291H46.2231Z" fill="#474343"/>
<path d="M55.4198 26.3322C55.4198 26.3322 54.8925 26.2124 54.2395 26.2124C52.8016 26.2124 51.7351 26.8475 51.4415 27.8061C51.3816 27.9859 51.3576 28.3873 51.3576 28.591C51.3576 29.8072 52.2024 30.4902 53.2509 30.4902C53.4486 30.4902 53.7841 30.4423 54.0597 30.3345C54.8086 30.0589 55.4198 29.5556 55.4198 28.7887V26.3322ZM56.4023 31.7724C56.3065 31.7724 55.8871 31.7963 55.7133 31.5986C55.5516 31.4429 55.5516 31.2092 55.5516 31.0175V30.4064C54.9225 31.335 53.862 31.9641 52.2623 31.9281C49.7639 31.8563 49.2068 29.8911 49.2068 28.8067C49.2068 28.4232 49.2427 27.6923 49.8179 26.9134C50.7046 25.6672 52.5379 25.2598 54.1796 25.2598C54.8925 25.2598 55.4198 25.3617 55.4198 25.3617V24.2652C55.4198 23.8758 55.4198 23.2108 55.0303 22.7434C54.7008 22.354 54.0777 22.0604 52.9873 22.0604C51.2798 22.0604 50.1534 23.025 50.1534 23.025L50.3631 21.7309C50.3631 21.7309 51.5194 20.946 53.3707 20.946C54.9285 20.946 55.9949 21.3714 56.624 22.0065C57.349 22.7614 57.5287 23.4564 57.5287 24.8464V31.7724H56.4023Z" fill="#474343"/>
<path d="M85.5981 24.7745C85.5981 24.1753 85.5202 23.3006 85.0469 22.7973C84.7174 22.4438 84.1841 22.1982 83.4292 22.1982C81.3802 22.1982 81.1405 24.9242 81.1405 26.3921V26.5479C81.1645 28.6269 81.7516 30.6879 83.4712 30.6879C84.4058 30.6879 85.0409 30.3284 85.5981 29.6274V24.7685V24.7745ZM86.2571 31.7723C85.8437 31.7723 85.6939 31.6345 85.6939 31.2511V30.7298C84.9091 31.4368 84.1362 31.9041 82.9739 31.9221H82.92C79.9243 31.9221 78.8758 29.3758 78.8758 26.5479C78.8758 24.427 79.6846 20.9879 83.0338 20.9879C85.0409 20.9879 85.5921 22.1982 85.5921 22.1982V18.6034C85.5921 17.8485 84.975 17.459 84.975 17.459H86.6166C87.2457 17.459 87.707 17.8964 87.707 18.3697V31.7723H86.2571Z" fill="#474343"/>
<path d="M101.277 21.2216C101.685 21.2216 101.888 21.4133 101.888 21.7668V22.5936C102.458 21.6589 103.482 21.0658 104.89 21.0658C105.993 21.0658 106.735 21.3174 107.389 22.0304C108.078 22.8033 108.257 23.7499 108.257 25.044V31.7783H106.993C106.46 31.7783 106.148 31.4128 106.148 30.9095V24.8164C106.148 22.9351 105.585 22.4019 104.273 22.4019C103.189 22.4019 102.008 23.1328 102.008 24.2592V31.7843H99.9113V22.1442C99.9113 21.4013 99.3302 21.2336 99.3302 21.2336H101.271L101.277 21.2216Z" fill="#474343"/>
<path d="M8.71139 31.8442C7.86062 31.9581 7.35136 32 6.52456 32C4.3557 32 2.97769 31.347 1.92921 30.3224C0.395428 28.8006 0 26.2723 0 24.6906C0 23.4144 0.215688 20.9101 2.26472 18.9809C3.21135 18.0941 4.68522 17.3392 6.89602 17.3392C8.86716 17.3392 9.81379 17.9024 9.81379 17.9024L10.1793 19.2085C10.1014 19.1726 9.08285 18.5854 7.38731 18.5854C3.90635 18.5854 2.44446 20.976 2.44446 24.6966C2.44446 30.3224 5.1825 30.7658 6.73425 30.7658C7.83666 30.7658 8.28001 30.592 8.28001 30.592V25.0021H7.06977C6.25495 25.0021 5.90745 25.128 5.90745 25.128L6.0812 23.9956H10.5507V31.4428C9.81979 31.6345 9.43035 31.7484 8.69941 31.8442H8.71139Z" fill="#474343"/>
<path d="M111.936 26.5C111.936 26.5 112.469 26.6138 113.122 26.6138C115.465 26.6138 115.998 25.4635 116.106 24.1334C116.196 22.9471 115.878 21.7668 114.045 21.9945C112.379 22.2042 111.936 23.2886 111.936 24.6426C111.936 25.763 111.942 26.5 111.942 26.5M115.093 20.952C117.592 21.1317 118.149 22.995 118.149 24.0735C118.149 24.4629 118.113 25.1939 117.538 25.9667C116.651 27.2189 114.818 27.6203 113.182 27.6203C112.469 27.6203 111.942 27.5245 111.942 27.5245V28.5011C111.942 30.3464 112.925 30.8437 114.548 30.8197C116.364 30.7957 117.801 29.6754 117.801 29.6754L117.598 30.9695C117.598 30.9695 115.95 31.9281 114.093 31.9281C112.535 31.9281 111.361 31.5147 110.738 30.8676C109.965 30.0648 109.833 28.9864 109.833 27.5964V25.2897C109.833 23.3246 110.642 20.6345 115.093 20.952Z" fill="#474343"/>
</svg>
