<svg width="32" height="31" viewBox="0 0 32 31" fill="none" xmlns="http://www.w3.org/2000/svg">
<path fill-rule="evenodd" clip-rule="evenodd" d="M16 0C21.2091 0 25.4359 4.67785 25.4359 10.4429C25.4359 16.2079 21.2091 20.8858 16 20.8858C10.7909 20.8858 6.56409 16.2079 6.56409 10.4429C6.56409 4.67785 10.7909 0 16 0Z" fill="#013BC0"/>
<path fill-rule="evenodd" clip-rule="evenodd" d="M2.32233 27.7962H3.30845L3.97841 24.6721L4.64837 27.7962H5.63073L4.96453 24.6888C4.89678 24.3805 4.84032 24.1056 4.77258 23.8057C4.65213 23.4516 4.3435 23.1975 3.98217 23.1975C3.59826 23.1975 3.27458 23.4766 3.16919 23.864C3.1052 24.1597 3.04498 24.4347 2.97723 24.7471L2.32233 27.7962ZM26.9866 23.1975C27.0393 23.1975 27.0958 23.1975 27.1485 23.2017H28.3303V24.268C27.8523 24.268 27.4157 24.268 26.9866 24.268C26.3731 24.268 25.8763 24.8179 25.8763 25.4969C25.8763 26.1717 26.3731 26.7215 26.9866 26.7215C27.0845 26.7215 27.1786 26.709 27.2652 26.684V25.4927H28.3303V27.7962H27.2652V27.7754C27.1748 27.7879 27.0807 27.7962 26.9866 27.7962C25.8387 27.7962 24.909 26.7673 24.909 25.4969C24.909 24.2264 25.8387 23.1975 26.9866 23.1975ZM22.1351 23.1975H21.3673V27.7962H22.4287V24.2722H23.2115C23.4938 24.2722 23.7272 24.5263 23.7272 24.8429C23.7272 25.1553 23.4938 25.4136 23.2115 25.4136H22.6018L23.6971 27.7962H24.7396L23.9794 26.1467C24.4084 25.8759 24.6945 25.3636 24.6945 24.7762C24.6945 23.9056 24.0546 23.1975 23.268 23.1975H22.1351ZM28.5072 27.7962H29.4933L30.1633 24.6721L30.8333 27.7962H31.8156L31.1494 24.6888C31.0817 24.3805 31.0252 24.1056 30.9612 23.8057C30.837 23.4516 30.5284 23.1975 30.1671 23.1975C29.7832 23.1975 29.4595 23.4766 29.3541 23.864C29.2901 24.1597 29.2299 24.4347 29.1621 24.7471L28.5072 27.7962ZM12.1835 27.7962H13.1697L13.8396 24.6721L14.2348 26.5132C14.3289 26.9548 14.4644 27.4172 14.9951 27.4172C15.5823 27.4172 15.6801 26.8673 15.7818 26.3924L16.1544 24.6721L16.8243 27.7962H17.8067L17.1367 24.6888C17.0727 24.3805 17.0125 24.1056 16.9485 23.8057C16.8281 23.4516 16.5195 23.1975 16.1544 23.1975C15.7742 23.1975 15.4505 23.4766 15.3451 23.864C15.2812 24.1597 15.2209 24.4347 15.1532 24.7471L14.9951 25.4802L14.8257 24.6888C14.758 24.3805 14.7015 24.1056 14.6375 23.8057C14.5133 23.4516 14.2047 23.1975 13.8434 23.1975C13.4595 23.1975 13.1358 23.4766 13.0304 23.864C12.9664 24.1597 12.9062 24.4347 12.8422 24.7471L12.1835 27.7962ZM17.882 27.7962H18.8643L19.5343 24.6721L20.208 27.7962H21.1904L20.5204 24.6888C20.4564 24.3805 20.3962 24.1056 20.3322 23.8057C20.2118 23.4516 19.9031 23.1975 19.538 23.1975C19.1579 23.1975 18.8342 23.4766 18.7288 23.864C18.6648 24.1597 18.6046 24.4347 18.5369 24.7471L17.882 27.7962ZM8.74341 27.7962H9.72576L10.3995 24.6721L11.0694 27.7962H12.0518L11.3818 24.6888C11.3179 24.3805 11.2576 24.1056 11.1937 23.8057C11.0732 23.4516 10.7646 23.1975 10.3995 23.1975C10.0193 23.1975 9.69565 23.4766 9.59027 23.864C9.52628 24.1597 9.46606 24.4347 9.39831 24.7471L8.74341 27.7962ZM6.89161 23.1975C7.45242 23.1975 8.01323 23.1975 8.57027 23.1975V24.2389H8.13743H6.98947L6.89161 24.2555C6.74482 24.3014 6.63567 24.4513 6.63567 24.6304C6.63567 24.847 6.79375 25.022 6.98947 25.022H7.43736C7.86644 25.022 8.05463 25.0137 8.34821 25.3094C8.60415 25.5718 8.76599 25.9467 8.76599 26.3633C8.76599 27.1547 8.18636 27.7962 7.47124 27.7962C6.91043 27.7962 6.35338 27.7962 5.79257 27.7962V26.7548H6.22541H7.37714L7.47124 26.7382C7.61802 26.6924 7.72718 26.5424 7.72718 26.3633C7.72718 26.1467 7.56909 25.9717 7.37714 25.9717H6.83891C6.48135 25.9717 6.21036 25.9217 5.95065 25.6135C5.73235 25.3552 5.59685 25.0095 5.59685 24.6304C5.59685 23.839 6.17648 23.1975 6.89161 23.1975ZM2.24329 23.1975H1.18189V26.4633C1.18189 26.6049 1.0765 26.7257 0.944771 26.7257H0.184479V27.7962H1.27599C1.81045 27.7962 2.24329 27.313 2.24329 26.7257V23.1975Z" fill="#013BC0"/>
<path fill-rule="evenodd" clip-rule="evenodd" d="M16 0C21.2091 0 25.4359 4.67785 25.4359 10.4429C25.4359 16.2079 21.2091 20.8858 16 20.8858C10.7909 20.8858 6.56409 16.2079 6.56409 10.4429C6.56409 4.67785 10.7909 0 16 0Z" fill="#013BC0"/>
<path fill-rule="evenodd" clip-rule="evenodd" d="M24.6719 6.32313C23.8702 6.04404 23.0798 5.83576 22.2969 5.67747C22.2404 5.2151 22.1727 4.76107 22.0974 4.30286C22.7335 4.47781 23.3734 4.68609 24.017 4.93602C24.2654 5.37756 24.4874 5.83993 24.6719 6.32313ZM18.4126 0.345642C18.8078 0.462276 19.1917 0.603903 19.5644 0.770522C19.9483 2.19929 20.2268 3.59473 20.4112 5.06515C20.6182 6.73967 20.6897 8.55999 20.6822 10.3428C20.6822 11.7633 20.3472 12.9796 19.474 14.0168C18.6084 15.0498 17.3738 15.6955 16 15.6955C13.3804 15.6955 11.2538 13.342 11.2538 10.4428C11.2538 8.08096 12.6653 6.26064 14.5999 5.66498C15.9586 5.24843 17.4604 5.43171 18.8568 5.55251C18.8869 6.0607 18.9095 6.46892 18.9245 6.97294C17.705 6.90213 16.064 6.74384 14.8558 7.12707C13.4707 7.56861 12.5147 8.73911 12.5147 10.4428C12.5147 12.5714 14.0767 14.3 16 14.3C16.8092 14.3 17.5545 13.996 18.1454 13.4836C19.252 12.5255 19.3574 10.9052 19.3272 9.33478C19.3122 8.56833 19.3047 7.81021 19.2934 7.14373C19.2746 6.27314 19.2143 5.38172 19.1127 4.46531C18.9659 3.14069 18.7326 1.76608 18.4126 0.345642ZM19.809 0.887156C20.2569 1.10793 20.6897 1.36202 21.0962 1.65361C21.4124 2.77829 21.6608 3.89881 21.849 5.06515C22.0711 6.4106 22.2028 7.85603 22.2818 9.29729C22.3421 10.4345 22.2442 11.5716 21.9356 12.6089C21.1188 15.3581 19.0224 17.4617 16 17.4617C12.4997 17.4617 9.65799 14.3167 9.65799 10.4428C9.65799 6.56889 12.4997 3.55724 16 3.55724C16.941 3.54474 17.8443 3.58223 18.7514 3.67387C18.7815 4.19456 18.8154 4.70691 18.8455 5.22343C18.3524 5.16928 17.8631 5.1193 17.3701 5.09014C16.7189 5.05265 15.9963 5.00683 15.3489 5.0943C12.8986 5.43171 11.0092 7.63942 11.0092 10.4428C11.0092 13.4919 13.3729 15.9662 16 15.9662C18.2922 15.9662 20.2004 14.2626 20.7801 11.9382C20.9909 11.0801 20.9833 10.2262 20.9306 9.33478C20.8892 8.56833 20.8516 7.81021 20.8102 7.14373C20.7613 6.27314 20.6672 5.38172 20.5279 4.46531C20.3548 3.30731 20.1176 2.11598 19.809 0.887156ZM24.7735 6.58972C24.924 7.0146 25.052 7.45197 25.1536 7.90185C24.2353 7.60193 23.3357 7.40199 22.4437 7.26869C22.4173 6.80632 22.3759 6.36061 22.327 5.92324C23.1701 6.09402 24.0057 6.31479 24.7735 6.58972Z" fill="#FDD100"/>
<path fill-rule="evenodd" clip-rule="evenodd" d="M0 28.7627V30.4164H0.109151V28.7627H0ZM0.95601 30.4164H1.0614V29.6874C1.0614 29.6499 1.06892 29.6083 1.07645 29.5791C1.11785 29.4291 1.24582 29.3125 1.39261 29.3125C1.61468 29.3125 1.68996 29.5041 1.68996 29.7166V30.4164H1.79534V29.7082C1.79534 29.2667 1.52435 29.2084 1.42272 29.2084C1.24959 29.2084 1.11409 29.3167 1.05763 29.45H1.05387L1.04634 29.2375H0.944719C0.952247 29.3292 0.95601 29.4125 0.95601 29.5208V30.4164ZM3.33851 28.671V29.4208H3.33474C3.28958 29.3167 3.16914 29.2084 2.98471 29.2084C2.72501 29.2084 2.5067 29.4541 2.5067 29.8499C2.5067 30.1998 2.70242 30.4414 2.96589 30.4414C3.16537 30.4414 3.28958 30.3206 3.34604 30.1914H3.3498L3.35733 30.4164H3.45519C3.44766 30.3331 3.4439 30.2289 3.4439 30.1414V28.671H3.33851ZM3.33851 29.9373C3.33851 29.9748 3.33474 30.004 3.32722 30.0373C3.28205 30.2331 3.13903 30.3455 2.98471 30.3455C2.73253 30.3455 2.61209 30.0998 2.61209 29.8374C2.61209 29.5333 2.75888 29.3083 2.99224 29.3083C3.16537 29.3083 3.29334 29.4375 3.32722 29.5958C3.33474 29.6291 3.33851 29.6707 3.33851 29.7041V29.9373ZM4.6709 29.2084C4.40367 29.2084 4.16655 29.4333 4.16655 29.8374C4.16655 30.2039 4.37732 30.4414 4.65208 30.4414C4.8892 30.4414 5.16396 30.2539 5.16396 29.8124C5.16396 29.4541 4.96448 29.2084 4.6709 29.2084ZM4.66714 29.3083C4.94942 29.3083 5.05857 29.6041 5.05857 29.8207C5.05857 30.1248 4.88167 30.3455 4.65961 30.3455C4.44131 30.3455 4.27194 30.1248 4.27194 29.829C4.27194 29.5749 4.39614 29.3083 4.66714 29.3083ZM5.88661 30.4164H5.992V29.6874C5.992 29.6499 5.99953 29.6083 6.00706 29.5791C6.04846 29.4291 6.17643 29.3125 6.32698 29.3125C6.54528 29.3125 6.62056 29.5041 6.62056 29.7166V30.4164H6.72595V29.7082C6.72595 29.2667 6.45495 29.2084 6.35333 29.2084C6.18019 29.2084 6.0447 29.3167 5.98824 29.45H5.98447L5.97695 29.2375H5.87909C5.88285 29.3292 5.88661 29.4125 5.88661 29.5208V30.4164ZM8.32933 29.8124C8.3331 29.7915 8.3331 29.7749 8.3331 29.7416C8.3331 29.5749 8.26535 29.2084 7.91908 29.2084C7.64432 29.2084 7.43731 29.4541 7.43731 29.8499C7.43731 30.1956 7.62926 30.4414 7.93413 30.4414C8.12232 30.4414 8.23147 30.3872 8.26911 30.3622L8.24277 30.2747C8.18255 30.3039 8.10351 30.3372 7.94919 30.3372C7.72712 30.3372 7.5427 30.1914 7.5427 29.8124H8.32933ZM7.54646 29.7207C7.56904 29.5374 7.67067 29.3083 7.90402 29.3083C8.15996 29.3083 8.22395 29.5583 8.22018 29.7207H7.54646ZM8.97295 30.358C9.04446 30.408 9.14232 30.4414 9.24394 30.4414C9.46224 30.4414 9.60151 30.3039 9.60151 30.104C9.60151 29.9248 9.49988 29.829 9.32675 29.754C9.18372 29.6874 9.10845 29.6332 9.10845 29.5125C9.10845 29.4041 9.17996 29.3083 9.31546 29.3083C9.42084 29.3083 9.48859 29.35 9.52623 29.3792L9.56763 29.2833C9.51494 29.2417 9.42837 29.2084 9.33427 29.2084C9.12726 29.2084 9.00306 29.3583 9.00306 29.5291C9.00306 29.6707 9.10092 29.779 9.27405 29.8499C9.42837 29.9207 9.49988 29.9873 9.49988 30.1164C9.49988 30.2414 9.42084 30.3414 9.25147 30.3414C9.15361 30.3414 9.06704 30.2997 9.01059 30.2622L8.97295 30.358ZM10.4408 30.4164V29.2375H10.3355V30.4164H10.4408ZM10.3881 28.796C10.3392 28.796 10.3016 28.846 10.3016 28.9001C10.3016 28.9543 10.3355 29.0001 10.3844 29.0001C10.4408 29.0001 10.4709 28.9543 10.4709 28.9001C10.4709 28.846 10.4371 28.796 10.3881 28.796ZM11.9125 29.6749C11.9125 29.4666 11.8523 29.2084 11.5474 29.2084C11.4495 29.2084 11.3291 29.2417 11.2312 29.3125L11.2651 29.3958C11.3442 29.3375 11.442 29.3083 11.5361 29.3083C11.7883 29.3042 11.8071 29.5374 11.8071 29.6541V29.6874C11.3743 29.6832 11.156 29.8457 11.156 30.1164C11.156 30.2747 11.2538 30.4414 11.4721 30.4414C11.6415 30.4414 11.7582 30.3372 11.8109 30.2456H11.8146L11.8335 30.4164H11.9275C11.9163 30.3247 11.9125 30.2289 11.9125 30.1373V29.6749ZM11.8071 30.0373C11.8071 30.0581 11.8033 30.0831 11.7958 30.1081C11.7619 30.2247 11.6603 30.3455 11.4797 30.3455C11.3705 30.3455 11.2689 30.2664 11.2689 30.0998C11.2689 29.8165 11.5737 29.779 11.8071 29.7832V30.0373ZM13.7455 28.7627V30.4164H13.8509V29.5874H14.6789V30.4164H14.7843V28.7627H14.6789V29.4916H13.8509V28.7627H13.7455ZM15.7365 30.4164V29.2375H15.6274V30.4164H15.7365ZM15.6801 28.796C15.6311 28.796 15.5935 28.846 15.5935 28.9001C15.5935 28.9543 15.6274 29.0001 15.6763 29.0001C15.7328 29.0001 15.7666 28.9543 15.7666 28.9001C15.7666 28.846 15.729 28.796 15.6801 28.796ZM17.3926 29.5416C17.3926 29.4208 17.3964 29.325 17.4039 29.2375H17.306L17.2985 29.4375H17.2948C17.2496 29.3375 17.1442 29.2084 16.9334 29.2084C16.7001 29.2084 16.4554 29.425 16.4554 29.8374C16.4554 30.1581 16.6436 30.4164 16.9108 30.4164C17.1028 30.4164 17.227 30.3081 17.2835 30.1873H17.2872V30.3539C17.2872 30.7038 17.1254 30.8287 16.9033 30.8287C16.7641 30.8287 16.6587 30.7871 16.5834 30.7329L16.5458 30.8246C16.6286 30.8954 16.7641 30.9287 16.8845 30.9287C17.0049 30.9287 17.148 30.8912 17.2458 30.7871C17.3362 30.6955 17.3926 30.5455 17.3926 30.2414V29.5416ZM17.2872 29.929C17.2872 29.9665 17.2797 30.0123 17.2684 30.054C17.2157 30.2206 17.084 30.3164 16.9372 30.3164C16.6888 30.3164 16.5608 30.0873 16.5608 29.8249C16.5608 29.5125 16.7189 29.3083 16.9447 29.3083C17.1179 29.3083 17.2308 29.4333 17.2722 29.5749C17.2835 29.6083 17.2872 29.6457 17.2872 29.6916V29.929ZM18.2018 30.4164H18.311V29.6957C18.311 29.6457 18.311 29.6166 18.3223 29.5791C18.3712 29.4333 18.4954 29.3125 18.646 29.3125C18.8605 29.3125 18.9358 29.5041 18.9358 29.7166V30.4164H19.0449V29.7041C19.0449 29.2667 18.7739 29.2084 18.6723 29.2084C18.5933 29.2084 18.5218 29.2334 18.4578 29.2792C18.3976 29.3167 18.3449 29.3833 18.3147 29.45H18.311V28.671H18.2018V30.4164ZM19.6923 29.2375L20.0198 30.4164H20.1139L20.3246 29.7624C20.3698 29.6291 20.4112 29.4958 20.4413 29.3583H20.4451C20.4752 29.4916 20.5128 29.6166 20.5542 29.7582L20.7575 30.4164H20.8478L21.2016 29.2375H21.0962L20.908 29.904C20.8629 30.0456 20.829 30.1664 20.8102 30.2747H20.8026C20.7763 30.1664 20.7424 30.0456 20.701 29.904L20.4978 29.2375H20.3961L20.1816 29.9082C20.1402 30.0415 20.1026 30.1664 20.0762 30.2747H20.0725C20.0499 30.1623 20.016 30.0456 19.9821 29.9082L19.8015 29.2375H19.6923ZM22.5378 29.6749C22.5378 29.4666 22.4775 29.2084 22.1689 29.2084C22.0748 29.2084 21.9544 29.2417 21.8565 29.3125L21.8904 29.3958C21.9694 29.3375 22.0673 29.3083 22.1576 29.3083C22.4135 29.3042 22.4324 29.5374 22.4324 29.6541V29.6874C21.9958 29.6832 21.7812 29.8457 21.7812 30.1164C21.7812 30.2747 21.8791 30.4414 22.0936 30.4414C22.2668 30.4414 22.3834 30.3372 22.4361 30.2456H22.4399L22.455 30.4164H22.5528C22.5415 30.3247 22.5378 30.2289 22.5378 30.1373V29.6749ZM22.4324 30.0373C22.4324 30.0581 22.4286 30.0831 22.4211 30.1081C22.3834 30.2247 22.2818 30.3455 22.1049 30.3455C21.9958 30.3455 21.8941 30.2664 21.8941 30.0998C21.8941 29.8165 22.199 29.779 22.4324 29.7832V30.0373ZM23.1663 29.2375L23.5615 30.3289C23.569 30.3539 23.5728 30.3705 23.5728 30.3789C23.5728 30.3914 23.569 30.408 23.5615 30.433C23.5088 30.5747 23.4373 30.6705 23.3846 30.7288C23.3206 30.7954 23.2491 30.8371 23.1964 30.8579L23.2303 30.9579C23.2566 30.9495 23.3319 30.9121 23.4147 30.8371C23.5578 30.6996 23.6481 30.483 23.7761 30.1164L24.096 29.2375H23.9831L23.7234 29.9998C23.6895 30.0956 23.6631 30.1914 23.6406 30.2622H23.6368C23.6142 30.1873 23.5879 30.0915 23.5578 30.0081L23.2792 29.2375H23.1663ZM26.7683 30.2622C26.6817 30.3081 26.5575 30.3372 26.4295 30.3372C26.0306 30.3372 25.7972 30.0498 25.7972 29.5999C25.7972 29.1251 26.0456 28.8335 26.4484 28.8335C26.5763 28.8335 26.6817 28.8626 26.757 28.9043L26.7909 28.8085C26.7457 28.7793 26.6366 28.7335 26.4446 28.7335C25.9741 28.7335 25.6881 29.1084 25.6881 29.5999C25.6881 30.1831 26.0343 30.4414 26.3957 30.4414C26.5801 30.4414 26.7231 30.3997 26.7984 30.358L26.7683 30.2622ZM27.9012 29.2084C27.6377 29.2084 27.4006 29.4333 27.4006 29.8374C27.4006 30.2039 27.6114 30.4414 27.8861 30.4414C28.1233 30.4414 28.398 30.2539 28.398 29.8124C28.398 29.4541 28.1985 29.2084 27.9012 29.2084ZM27.9012 29.3083C28.1835 29.3083 28.2926 29.6041 28.2926 29.8207C28.2926 30.1248 28.1157 30.3455 27.8937 30.3455C27.6754 30.3455 27.506 30.1248 27.506 29.829C27.506 29.5749 27.6264 29.3083 27.9012 29.3083ZM29.1169 30.4164H29.2261V29.7665C29.2261 29.7249 29.2261 29.6874 29.2336 29.6499C29.2637 29.4625 29.3653 29.325 29.5121 29.325C29.5309 29.325 29.5498 29.325 29.5648 29.3292V29.2167C29.5498 29.2125 29.5347 29.2084 29.5196 29.2084C29.3766 29.2084 29.2637 29.3292 29.2185 29.475H29.211L29.2072 29.2375H29.1094C29.1169 29.3542 29.1169 29.4708 29.1169 29.5916V30.4164ZM30.2385 30.8996H30.3477V30.2247H30.3514C30.423 30.3664 30.5585 30.4414 30.7128 30.4414C30.9687 30.4414 31.1945 30.2247 31.1945 29.8082C31.1945 29.4625 31.0101 29.2084 30.7354 29.2084C30.5547 29.2084 30.423 29.3042 30.3439 29.4625H30.3402L30.3326 29.2375H30.231C30.2385 29.35 30.2385 29.4666 30.2385 29.6124V30.8996ZM30.3477 29.7207C30.3477 29.6874 30.3552 29.6499 30.3627 29.6208C30.4079 29.425 30.5585 29.3083 30.7165 29.3083C30.9574 29.3083 31.0892 29.5458 31.0892 29.8124C31.0892 30.1248 30.9499 30.3455 30.7052 30.3455C30.5434 30.3455 30.4004 30.2247 30.3552 30.0456C30.3477 30.0165 30.3477 29.9832 30.3477 29.9498V29.7207ZM31.9059 30.4414C31.9624 30.4414 32 30.3914 32 30.3331C32 30.2664 31.9624 30.2206 31.9097 30.2206C31.857 30.2206 31.8193 30.2664 31.8193 30.3331C31.8156 30.3914 31.8532 30.4414 31.9059 30.4414Z" fill="#013BC0"/>
</svg>
