<svg width="30" height="32" viewBox="0 0 30 32" fill="none" xmlns="http://www.w3.org/2000/svg">
<path d="M14.122 27.9108H0.622131" stroke="white" stroke-miterlimit="10" stroke-linecap="round" stroke-linejoin="round"/>
<path d="M6.83569 2.6604H11.4809" stroke="white" stroke-miterlimit="10" stroke-linecap="round" stroke-linejoin="round"/>
<path d="M17.3332 30.6344C17.0199 31.036 16.5314 31.2943 15.9826 31.2943H6.83569" stroke="white" stroke-miterlimit="10" stroke-linecap="round" stroke-linejoin="round"/>
<path d="M17.6944 9.64954V15.4748" stroke="white" stroke-miterlimit="10" stroke-linecap="round" stroke-linejoin="round"/>
<path d="M4.35476 31.2943H2.33388C1.38851 31.2943 0.622131 30.5279 0.622131 29.5826V2.1805C0.622131 1.23513 1.38851 0.46875 2.33388 0.46875H15.9826C16.928 0.46875 17.6944 1.23513 17.6944 2.1805V7.4785" stroke="white" stroke-miterlimit="10" stroke-linecap="round" stroke-linejoin="round"/>
<path d="M0.622131 5.07214H17.5676" stroke="white" stroke-miterlimit="10" stroke-linecap="round" stroke-linejoin="round"/>
<path d="M3.86844 8.35376H15.1722C15.4048 8.35376 15.5933 8.54232 15.5933 8.77489C15.5933 9.83107 14.7371 10.6873 13.6809 10.6873H3.86844" stroke="white" stroke-miterlimit="10" stroke-linecap="round" stroke-linejoin="round"/>
<path d="M3.86844 10.6873C4.51282 10.6873 5.03519 10.1649 5.03519 9.52051C5.03519 8.87613 4.51282 8.35376 3.86844 8.35376C3.22406 8.35376 2.70169 8.87613 2.70169 9.52051C2.70169 10.1649 3.22406 10.6873 3.86844 10.6873Z" stroke="white" stroke-miterlimit="10" stroke-linecap="round" stroke-linejoin="round"/>
<path d="M3.86844 12.9081H15.1722C15.4048 12.9081 15.5933 13.0966 15.5933 13.3292C15.5933 14.3854 14.7371 15.2416 13.6809 15.2416H3.86844" stroke="white" stroke-miterlimit="10" stroke-linecap="round" stroke-linejoin="round"/>
<path d="M3.86844 15.2416C4.51282 15.2416 5.03519 14.7192 5.03519 14.0748C5.03519 13.4305 4.51282 12.9081 3.86844 12.9081C3.22406 12.9081 2.70169 13.4305 2.70169 14.0748C2.70169 14.7192 3.22406 15.2416 3.86844 15.2416Z" stroke="white" stroke-miterlimit="10" stroke-linecap="round" stroke-linejoin="round"/>
<path d="M13.3204 19.7959H3.86844" stroke="white" stroke-miterlimit="10" stroke-linecap="round" stroke-linejoin="round"/>
<path d="M3.86844 17.4624H14.9609" stroke="white" stroke-miterlimit="10" stroke-linecap="round" stroke-linejoin="round"/>
<path d="M3.86844 19.7959C4.51282 19.7959 5.03519 19.2735 5.03519 18.6292C5.03519 17.9848 4.51282 17.4624 3.86844 17.4624C3.22406 17.4624 2.70169 17.9848 2.70169 18.6292C2.70169 19.2735 3.22406 19.7959 3.86844 19.7959Z" stroke="white" stroke-miterlimit="10" stroke-linecap="round" stroke-linejoin="round"/>
<path d="M12.7968 24.3502H3.86844" stroke="white" stroke-miterlimit="10" stroke-linecap="round" stroke-linejoin="round"/>
<path d="M3.86844 22.0167H12.7968" stroke="white" stroke-miterlimit="10" stroke-linecap="round" stroke-linejoin="round"/>
<path d="M3.86844 24.3502C4.51282 24.3502 5.03519 23.8279 5.03519 23.1835C5.03519 22.5391 4.51282 22.0167 3.86844 22.0167C3.22406 22.0167 2.70169 22.5391 2.70169 23.1835C2.70169 23.8279 3.22406 24.3502 3.86844 24.3502Z" stroke="white" stroke-miterlimit="10" stroke-linecap="round" stroke-linejoin="round"/>
<path d="M21.0873 31.5312C25.666 31.5312 29.3778 27.8194 29.3778 23.2407C29.3778 18.662 25.666 14.9502 21.0873 14.9502C16.5086 14.9502 12.7968 18.662 12.7968 23.2407C12.7968 27.8194 16.5086 31.5312 21.0873 31.5312Z" stroke="white" stroke-miterlimit="10" stroke-linecap="round" stroke-linejoin="round"/>
<path d="M17.5141 20.2207H24.6606C25.2112 20.2207 25.6576 20.667 25.6576 21.2176V25.7997C25.6576 26.3503 25.2113 26.7966 24.6606 26.7966H17.5141C16.9635 26.7966 16.5171 26.3503 16.5171 25.7997V21.2176C16.5171 20.6671 16.9635 20.2207 17.5141 20.2207Z" stroke="white" stroke-miterlimit="10" stroke-linecap="round" stroke-linejoin="round"/>
<path d="M22.7276 20.2207V18.558C22.7276 18.3516 22.5603 18.1843 22.3539 18.1843H19.8208C19.6144 18.1843 19.4471 18.3516 19.4471 18.558V20.2207" stroke="white" stroke-miterlimit="10" stroke-linecap="round" stroke-linejoin="round"/>
<path d="M19.7791 23.5088H22.3956" stroke="white" stroke-miterlimit="10" stroke-linecap="round" stroke-linejoin="round"/>
</svg>
