<svg width="107" height="32" viewBox="0 0 107 32" fill="none" xmlns="http://www.w3.org/2000/svg">
<mask id="mask0_113_237" style="mask-type:luminance" maskUnits="userSpaceOnUse" x="0" y="0" width="107" height="32">
<path d="M0 32H106.116V1.90735e-06H0V32Z" fill="white"/>
</mask>
<g mask="url(#mask0_113_237)">
<path d="M0.112635 22.3162C0.112635 20.7782 0.0833104 19.488 0.000328064 18.3368H2.91032L3.04696 20.3128H3.12808C3.78632 19.2683 4.99487 18.033 7.24475 18.033C9.0011 18.033 10.3725 19.025 10.9484 20.505H11.0045C11.4731 19.7631 12.0209 19.2165 12.6505 18.831C13.3911 18.31 14.2427 18.033 15.3421 18.033C17.562 18.033 19.81 19.5429 19.81 23.8261V31.6995H16.5182V24.3178C16.5182 22.096 15.7507 20.7782 14.1342 20.7782C12.9793 20.7782 12.127 21.6024 11.7726 22.5633C11.6902 22.8921 11.6072 23.3033 11.6072 23.6857V31.6995H8.31353V23.9615C8.31353 22.096 7.57356 20.7782 6.00999 20.7782C4.74717 20.7782 3.898 21.7659 3.59602 22.6974C3.45938 23.0294 3.40136 23.4125 3.40136 23.7968V31.6995H0.112635V22.3162Z" fill="#003A70"/>
<path d="M29.3451 25.1705C26.9573 25.1143 24.6812 25.6341 24.6812 27.6662C24.6812 28.9814 25.5322 29.5873 26.6023 29.5873C27.9443 29.5873 28.9345 28.7094 29.2334 27.7492C29.3164 27.5027 29.3451 27.227 29.3451 27.0086V25.1705ZM32.6369 28.4898C32.6369 29.6965 32.6924 30.8719 32.8309 31.6993H29.7843L29.5653 30.2168H29.4798C28.6581 31.26 27.2593 32 25.5322 32C22.8419 32 21.3338 30.0558 21.3338 28.0212C21.3338 24.6464 24.3224 22.9468 29.2621 22.9736V22.754C29.2621 21.8755 28.9046 20.4212 26.5474 20.4212C25.229 20.4212 23.8551 20.8348 22.9517 21.4107L22.2922 19.2164C23.2799 18.6105 25.01 18.0328 27.1226 18.0328C31.4034 18.0328 32.6369 20.7518 32.6369 23.6593V28.4898Z" fill="#003A70"/>
<path d="M34.9717 22.3162C34.9717 20.7782 34.9411 19.488 34.8613 18.3368H37.8218L37.9871 20.3396H38.0683C38.6441 19.2989 40.1004 18.033 42.3209 18.033C44.6557 18.033 47.0697 19.5429 47.0697 23.7687V31.6995H43.6936V24.1543C43.6936 22.2332 42.9798 20.7782 41.1423 20.7782C39.7978 20.7782 38.8669 21.7372 38.5081 22.7536C38.4008 23.0568 38.3715 23.4692 38.3715 23.8492V31.6995H34.9717V22.3162Z" fill="#003A70"/>
<path d="M58.3259 23.9054C58.3259 23.6327 58.2978 23.3033 58.2442 23.0287C57.9416 21.7116 56.8728 20.6422 55.3354 20.6422C53.1679 20.6422 51.9612 22.5639 51.9612 25.0602C51.9612 27.5023 53.1679 29.288 55.3092 29.288C56.6794 29.288 57.8879 28.354 58.2161 26.8996C58.2978 26.597 58.3259 26.265 58.3259 25.9088V23.9054ZM61.7001 12.9679V27.9397C61.7001 29.3111 61.7563 30.7941 61.8099 31.6982H58.792L58.6572 29.5875H58.6011C57.8055 31.0668 56.1827 32.0002 54.2373 32.0002C51.0553 32.0002 48.5302 29.288 48.5302 25.1707C48.5034 20.6965 51.303 18.0329 54.5131 18.0329C56.3499 18.0329 57.6683 18.8023 58.271 19.7937H58.3259V12.9679H61.7001Z" fill="#003A70"/>
<path d="M64.0861 18.3366H67.4933V31.698H64.0861V18.3366Z" fill="#003A70"/>
<path d="M69.8763 22.6452C69.8763 20.8346 69.8489 19.5431 69.7659 18.3376H72.7027L72.8113 20.887H72.9229C73.5806 18.994 75.1454 18.3376 76.5723 18.3376C76.9011 18.3376 77.0933 18.2809 77.3678 18.3376V21.3019C77.0933 21.2458 76.7919 21.1909 76.3783 21.1909C74.761 21.1909 73.6635 22.2328 73.3628 23.7415C73.3079 24.0428 73.2536 24.4022 73.2536 24.7878V31.6984H69.8763V22.6452Z" fill="#003A70"/>
<path d="M78.9318 18.3366H82.3322V31.698H78.9318V18.3366Z" fill="#003A70"/>
<path fill-rule="evenodd" clip-rule="evenodd" d="M103.328 4.22136C101.649 2.30903 99.8668 3.17254 98.4442 3.87758C97.8484 4.17207 95.6852 5.6121 93.5414 6.616C92.014 7.33164 89.8215 7.11514 88.6192 5.63019C88.5462 5.54035 86.6027 3.18564 86.3968 2.89552C85.1346 1.31261 81.942 -0.000128746 78.1273 2.18299C76.0833 3.36596 71.2666 6.12996 69.4659 7.15819C68.3715 7.7166 65.8309 7.96056 64.3959 6.02202C64.3722 5.9902 62.4867 3.63737 62.4112 3.5469C62.3556 3.48326 61.1377 1.67699 58.423 1.62146C58.0237 1.61147 56.0296 1.59962 54.0811 2.70584C51.4974 4.18393 45.484 7.62177 45.484 7.62177C45.4796 7.62177 45.4796 7.62489 45.4796 7.62489C43.0076 9.03995 41.0797 10.1387 41.0797 10.1387L43.3558 12.9364C44.4215 14.2572 46.8211 15.2811 48.9038 14.0857C48.9038 14.0857 56.5968 9.63081 56.6236 9.61834C59.9516 7.7921 62.5197 7.7921 64.2212 8.47218C65.7517 9.1167 67.0819 10.7264 67.0819 10.7264C67.0819 10.7264 68.822 12.8827 69.1277 13.2596C70.1173 14.4775 71.7539 13.9996 71.7539 13.9996C71.7539 13.9996 72.3584 13.9297 73.2769 13.3869C73.2769 13.3869 80.7266 9.06741 80.7309 9.06616C83.0981 7.67792 85.2694 7.41899 86.3768 7.52007C89.8502 7.8364 90.9303 10.2629 92.4377 11.9549C93.3243 12.9526 94.1235 13.5166 95.347 13.4879C96.1525 13.4698 97.0603 12.9838 97.1945 12.8964L106.117 7.74593C106.117 7.74593 105.203 6.3683 103.328 4.22136Z" fill="#FFB700"/>
</g>
</svg>
