<svg width="110" height="33" viewBox="0 0 110 33" fill="none" xmlns="http://www.w3.org/2000/svg">
<path d="M39.7732 13.5319H43.2198C44.1797 13.5319 44.954 13.8265 45.5427 14.4157C46.1314 14.9994 46.5512 15.7693 46.5512 16.7254C46.5512 17.3535 46.5408 18.5598 46.2491 19.1268C45.9627 19.6882 45.5278 20.1079 44.9444 20.3858C44.361 20.6638 43.727 20.8083 43.3133 20.8194L41.8292 20.8527V24.4796H39.7732V13.5319ZM41.7974 15.8671V18.702L43.0557 18.702C43.4322 18.702 43.7531 18.5602 44.0183 18.2768C44.2888 17.9933 44.424 17.657 44.424 17.2679C44.424 16.8232 44.2729 16.4785 43.9706 16.234C43.6683 15.9894 43.3542 15.8669 42.7973 15.8669L41.7974 15.8671Z" fill="#082313"/>
<path d="M47.7314 13.5317H53.3183V15.6996H49.7751V17.6885H53.2131V20.0437H49.7751V22.0419H53.3183V24.4795H47.7314V13.5317Z" fill="#082313"/>
<path d="M55.2384 13.5317H58.8186C59.756 13.5317 60.343 13.8223 60.8864 14.3989C61.4326 14.9785 61.6208 15.8956 61.7072 16.7419C61.7678 17.3344 61.7331 17.9056 61.4809 18.5115C61.2334 19.1174 60.4871 19.7778 59.7936 19.9808L62.526 24.4795H60.049L57.4867 20.1225L57.2583 20.1225V24.4795H55.2384V13.5317ZM57.2726 15.6632V18.4904H58.0015C59.0531 18.4904 59.5789 17.8314 59.5789 16.8252C59.5789 15.7023 58.6199 15.6689 58.0301 15.6632H57.2726Z" fill="#082313"/>
<path d="M62.6147 13.5317H69.3115V15.9024H67.0287V24.4795H64.8824V15.9024H62.6147V13.5317Z" fill="#082313"/>
<path d="M71.8295 13.5317H73.9697L76.9188 24.4795H74.7529L74.1902 22.5058H71.5438L70.8792 24.4795H68.8575L71.8295 13.5317ZM72.8735 17.0534L71.9116 20.4412H73.6946L72.8735 17.0534Z" fill="#082313"/>
<path d="M79.0332 13.5317H81.034L82.6699 19.6096L84.4498 13.5317H86.436L87.5842 24.4795H85.6158L85.0338 18.2739L83.0656 24.4793H82.2551L80.4015 18.1605L79.5511 24.4793L77.729 24.4795L79.0332 13.5317Z" fill="#082313"/>
<path d="M88.9224 13.5317H90.9938V24.4795H88.9224V13.5317Z" fill="#082313"/>
<path d="M98.7712 13.5917H100.66V24.4795H98.5675L94.9205 17.9947V24.4795H92.8773V13.5917H94.829L98.7712 20.3299V13.5917Z" fill="#082313"/>
<path d="M104.911 13.5317H107.051L110 24.4795H107.834L107.271 22.5058H104.625L103.96 24.4795H101.939L104.911 13.5317ZM105.955 17.0534L104.993 20.4412H106.776L105.955 17.0534Z" fill="#082313"/>
<path d="M0 32.1168C0 32.1168 6.90527 18.3314 8.03048 16.046C9.15554 13.7603 10.1248 13.5457 13.2331 13.5457H20.0841C19.6802 13.971 18.9894 14.859 18.4726 15.9027L11.5045 29.974C10.8078 31.5463 9.33451 32.1168 7.56655 32.1168H0Z" fill="#006CB8"/>
<path d="M27.2778 13.5457C24.1695 13.5457 23.1948 13.7603 22.0107 16.046C20.8264 18.3313 17.6453 24.4896 17.6453 24.4896H25.6119C27.0028 24.4896 28.3567 23.723 28.9396 22.4559L33.6465 13.5457H27.2778Z" fill="#ACC42A"/>
<path d="M24.0139 0C27.1222 0 28.0969 0.214602 29.281 2.50031C30.4653 4.78564 33.6465 10.9439 33.6465 10.9439H25.6798C24.2889 10.9439 22.9351 10.1773 22.3521 8.91021L17.6453 0H24.0139Z" fill="#ED1B2F"/>
</svg>
