<svg width="32" height="32" viewBox="0 0 32 32" fill="none" xmlns="http://www.w3.org/2000/svg">
<g clip-path="url(#clip0_142_127)">
<path d="M26.6711 13.6011H18.1963C18.0293 13.6011 17.8939 13.7364 17.8939 13.9034C17.8939 14.0704 18.0293 14.2058 18.1963 14.2058L26.6712 14.2057C26.8382 14.2057 26.9735 14.0704 26.9735 13.9033C26.9735 13.7363 26.8381 13.6011 26.6711 13.6011Z" fill="#F9F7F7"/>
<path d="M29.4815 4.91435H27.34V3.98091C27.34 2.10516 25.814 0.579102 23.9382 0.579102H20.9293C19.0535 0.579102 17.5275 2.1051 17.5275 3.98091V4.91435H15.386C14.3166 4.91435 13.4467 5.78423 13.4467 6.85348V8.24585C13.4467 9.3041 14.0887 10.2145 15.0032 10.6102V13.5681C15.0032 15.4303 16.5181 16.9452 18.3803 16.9452H26.4872C28.3494 16.9452 29.8643 15.4303 29.8643 13.5681V10.6102C30.7788 10.2145 31.4208 9.3041 31.4208 8.24585V6.85348C31.4207 5.78423 30.5508 4.91435 29.4815 4.91435ZM18.1322 3.98091C18.1322 2.43866 19.387 1.18385 20.9293 1.18385H23.9382C25.4805 1.18385 26.7353 2.43866 26.7353 3.98091V4.91435H25.47V3.98091C25.47 3.13641 24.7829 2.44929 23.9383 2.44929H20.9293C20.0847 2.44929 19.3976 3.13641 19.3976 3.98091V4.91435H18.1323V3.98091H18.1322ZM20.0022 4.91435V3.98091C20.0022 3.46979 20.4181 3.05404 20.9293 3.05404H23.9382C24.4493 3.05404 24.8653 3.46979 24.8653 3.98091V4.91435H20.0022ZM29.2595 13.5681C29.2595 15.0968 28.0158 16.3405 26.4872 16.3405H18.3802C16.8515 16.3405 15.6078 15.0967 15.6078 13.5681V10.7848C16.004 10.8493 16.0501 10.8087 18.0387 10.8212C18.0678 11.022 18.1344 11.2564 18.2844 11.4064C18.6411 11.763 19.7027 11.763 20.0593 11.4064C20.186 11.2797 20.2654 11.0626 20.3022 10.8212H24.5653C24.602 11.0626 24.6814 11.2798 24.8081 11.4065C25.1648 11.7629 26.2265 11.7628 26.5832 11.4064C26.7098 11.2797 26.7892 11.0626 26.826 10.8212C28.8526 10.8085 28.8631 10.8493 29.2596 10.7848L29.2595 13.5681ZM18.7115 10.0593C18.845 9.9386 19.4972 9.93841 19.6318 10.0589C19.7523 10.1934 19.7521 10.846 19.6322 10.9784C19.4992 11.0993 18.845 11.0993 18.7124 10.9792C18.5913 10.8458 18.5913 10.1917 18.7115 10.0593ZM25.2352 10.0594C25.3683 9.93835 26.0208 9.93854 26.1555 10.0589C26.276 10.1935 26.2758 10.846 26.156 10.9782C26.0228 11.0994 25.3686 11.0993 25.236 10.9793C25.1152 10.8458 25.1153 10.1917 25.2352 10.0594ZM30.816 8.24585C30.816 9.33248 29.932 10.2165 28.8454 10.2165H26.826C26.7893 9.97516 26.7099 9.75804 26.5833 9.63129C26.5832 9.63129 26.5832 9.63129 26.5832 9.63116C26.2265 9.27479 25.1649 9.27491 24.8079 9.63129C24.6813 9.75804 24.6019 9.97516 24.5652 10.2165H20.3022C20.2655 9.97516 20.1861 9.75804 20.0595 9.63129C20.0593 9.63129 20.0593 9.63129 20.0593 9.63129C19.7027 9.2746 18.6411 9.2746 18.2844 9.63129C18.1344 9.78129 18.0677 10.0158 18.0387 10.2165H16.022C14.9353 10.2165 14.0514 9.33248 14.0514 8.24585V6.85348C14.0514 6.11766 14.6501 5.5191 15.3859 5.5191H29.4814C30.2172 5.5191 30.8159 6.11766 30.8159 6.85348V8.24585H30.816Z" fill="#F9F7F7"/>
<path d="M0.579224 29.1844C0.579224 30.4176 1.58241 31.4208 2.81566 31.4208H11.0995C12.3327 31.4208 13.3359 30.4176 13.3359 29.1844C13.3359 26.4781 11.4068 24.2183 8.85229 23.6968C10.0509 23.0375 10.8693 21.7733 10.8988 20.3184C12.1452 19.5825 12.9855 18.2298 12.9855 16.6806C12.9855 14.3276 11.0712 12.4133 8.71816 12.4133H5.19691C2.84385 12.4133 0.929536 14.3276 0.929536 16.6806C0.929536 18.2295 1.77004 19.5811 3.01616 20.317C3.04535 21.7763 3.86779 23.0443 5.07197 23.7023C2.51416 24.2211 0.579224 26.4757 0.579224 29.1844ZM5.68316 23.968C6.0836 24.1052 6.51122 24.1832 6.9576 24.1832C7.40397 24.1832 7.8316 24.1051 8.23204 23.968V25.2533C8.23204 25.9561 7.66035 26.5278 6.9576 26.5278C6.25485 26.5278 5.68316 25.9561 5.68316 25.2533V23.968ZM3.01222 17.854V19.5935C2.11754 18.9335 1.53435 17.8751 1.53435 16.6806C1.53435 14.661 3.17741 13.0181 5.19704 13.0181H5.55766C6.58579 13.8294 6.92791 14.3851 6.6876 14.8624C6.61247 15.0115 6.67254 15.1933 6.82166 15.2684C6.86522 15.2904 6.91172 15.3007 6.95735 15.3007C7.0681 15.3007 7.17454 15.2399 7.22766 15.1343C7.63954 14.3164 7.08235 13.562 6.49954 13.0181H8.71829C10.7378 13.0181 12.381 14.661 12.381 16.6806C12.381 17.876 11.7985 18.9373 10.9031 19.5975V17.854C10.9031 16.993 10.2025 16.2925 9.34154 16.2925H4.57379C3.71272 16.2924 3.01222 16.993 3.01222 17.854ZM3.61691 20.2378V17.854C3.61691 17.3263 4.0461 16.8971 4.57379 16.8971H9.34141C9.8691 16.8971 10.2983 17.3263 10.2983 17.854V20.2378C10.2983 22.08 8.79972 23.5785 6.9576 23.5785C5.11547 23.5785 3.61691 22.0799 3.61691 20.2378ZM5.07841 24.3173V25.2533C5.07841 26.2894 5.92141 27.1325 6.9576 27.1325C7.99379 27.1325 8.83679 26.2895 8.83679 25.2533V24.312C11.063 24.817 12.7312 26.8075 12.7312 29.1844C12.7312 30.0841 11.9992 30.8161 11.0995 30.8161H2.81566C1.91591 30.8161 1.18391 30.0841 1.18391 29.1844C1.18397 26.8081 2.8531 24.8232 5.07841 24.3173Z" fill="#F9F7F7"/>
<path d="M8.59296 19.4692C8.75996 19.4692 8.89534 19.3339 8.89534 19.1669V18.9589C8.89534 18.7919 8.75996 18.6565 8.59296 18.6565C8.42596 18.6565 8.29059 18.7919 8.29059 18.9589V19.1669C8.29065 19.3339 8.42603 19.4692 8.59296 19.4692Z" fill="#F9F7F7"/>
<path d="M5.32215 18.6565C5.15515 18.6565 5.01978 18.7919 5.01978 18.9589V19.1669C5.01978 19.3339 5.15515 19.4692 5.32215 19.4692C5.48915 19.4692 5.62453 19.3339 5.62453 19.1669V18.9589C5.62453 18.7919 5.48915 18.6565 5.32215 18.6565Z" fill="#F9F7F7"/>
<path d="M6.95698 20.8463C7.12398 20.8463 7.25935 20.7109 7.25935 20.5439V20.1853C7.25935 20.0183 7.12398 19.8829 6.95698 19.8829C6.78998 19.8829 6.6546 20.0183 6.6546 20.1853V20.5439C6.65466 20.7109 6.79004 20.8463 6.95698 20.8463Z" fill="#F9F7F7"/>
<path d="M7.78702 21.6159C7.6689 21.4978 7.47758 21.4978 7.35946 21.6159C7.13683 21.8383 6.7764 21.8398 6.55558 21.6192C6.43746 21.5011 6.24615 21.5011 6.12802 21.6192C6.0099 21.7373 6.0099 21.9286 6.12802 22.0468C6.35571 22.2744 6.65496 22.3883 6.95452 22.3883C7.25571 22.3883 7.55734 22.2733 7.78709 22.0435C7.90515 21.9254 7.90515 21.7341 7.78702 21.6159Z" fill="#F9F7F7"/>
<path d="M14.7105 24.4111C14.5481 24.5574 14.4552 24.7666 14.4555 24.9851L14.4584 26.9939C14.4587 27.2121 14.552 27.4209 14.7143 27.5666C14.8765 27.7124 15.093 27.7819 15.311 27.76L18.362 27.4365C18.3508 27.4777 18.3392 27.5188 18.327 27.5598C18.2484 27.825 18.3406 28.1031 18.5621 28.2682C18.784 28.4335 19.0765 28.4422 19.3074 28.2915L22.0014 26.5356C22.1869 26.4147 22.2976 26.2105 22.2976 25.9892C22.2976 25.7677 22.1869 25.5635 22.0014 25.4426L19.305 23.6854C19.0731 23.5344 18.7802 23.544 18.5595 23.7092C18.338 23.8745 18.2459 24.1527 18.3247 24.4177C18.3369 24.4583 18.3485 24.4992 18.3597 24.54L15.3082 24.2169C15.0923 24.1954 14.8729 24.2648 14.7105 24.4111ZM18.72 25.1865C18.8164 25.196 18.9104 25.1609 18.9751 25.0897C19.0399 25.0188 19.0671 24.9212 19.0485 24.827C19.0101 24.6336 18.9617 24.438 18.9044 24.2454C18.9015 24.2357 18.8949 24.2135 18.9212 24.1939C18.9472 24.1744 18.9665 24.1866 18.9749 24.1922L21.6713 25.9494C21.6856 25.9587 21.6929 25.9722 21.6929 25.9893C21.6929 26.0063 21.6856 26.0197 21.6713 26.029L18.9772 27.785C18.969 27.7902 18.9494 27.8029 18.9237 27.7835C18.8973 27.7639 18.9039 27.7415 18.9069 27.7319C18.9645 27.5373 19.0128 27.3412 19.0501 27.1489C19.0684 27.0548 19.0411 26.9575 18.9763 26.8868C18.9187 26.824 18.8377 26.7887 18.7533 26.7887C18.7427 26.7887 18.7321 26.7893 18.7215 26.7904L15.2475 27.1585C15.1822 27.1654 15.1391 27.1352 15.1186 27.1167C15.0979 27.0983 15.0634 27.0575 15.0632 26.993L15.0603 24.9842C15.0602 24.9197 15.0947 24.8787 15.1154 24.8603C15.136 24.8419 15.1803 24.8115 15.2444 24.8184L18.72 25.1865Z" fill="#F9F7F7"/>
<path d="M27.3751 23.6953C27.5402 23.474 27.5495 23.1815 27.3986 22.9498L25.6421 20.2561C25.5212 20.0707 25.317 19.96 25.0955 19.96C24.8742 19.96 24.67 20.0707 24.5491 20.2561L22.792 22.9525C22.6412 23.1841 22.6505 23.4768 22.8158 23.6981C22.9813 23.9194 23.2589 24.0115 23.5243 23.9327C23.565 23.9206 23.6059 23.909 23.647 23.8977L23.3239 26.9491C23.3009 27.1666 23.3716 27.3844 23.518 27.5468C23.664 27.7089 23.8728 27.8018 24.091 27.8018H24.0922L26.1012 27.7988C26.3194 27.7985 26.5282 27.7052 26.674 27.5428C26.8198 27.3806 26.8902 27.1631 26.8672 26.9461L26.5435 23.8954C26.5846 23.9066 26.6258 23.9183 26.6668 23.9304C26.9323 24.0097 27.2099 23.9169 27.3751 23.6953ZM26.2657 27.0098C26.2727 27.074 26.2425 27.1181 26.2241 27.1388C26.2057 27.1593 26.1649 27.1939 26.1004 27.194L24.0914 27.197C24.0913 27.197 24.0911 27.197 24.0911 27.197C24.0266 27.197 23.9859 27.1624 23.9672 27.1419C23.9488 27.1212 23.9185 27.0771 23.9254 27.0128L24.2932 23.5374C24.3032 23.4417 24.2674 23.3471 24.1963 23.2823C24.1402 23.2309 24.0672 23.2031 23.9924 23.2031C23.9729 23.2031 23.9532 23.2051 23.9337 23.2089C23.7404 23.2471 23.5446 23.2957 23.3518 23.353C23.342 23.3557 23.3197 23.3625 23.3003 23.3362C23.2808 23.3101 23.2934 23.2909 23.2987 23.2826L25.0557 20.5863C25.0746 20.5576 25.117 20.5578 25.1353 20.5864L26.8918 23.2801C26.8972 23.2883 26.9098 23.3077 26.8903 23.3336C26.8704 23.3601 26.8482 23.3535 26.8386 23.3505C26.6442 23.2929 26.4481 23.2446 26.2559 23.2071C26.1615 23.1886 26.0642 23.2161 25.9935 23.2809C25.9227 23.3457 25.887 23.4403 25.897 23.5357L26.2657 27.0098Z" fill="#F9F7F7"/>
</g>
<defs>
<clipPath id="clip0_142_127">
<rect width="32" height="32" fill="white"/>
</clipPath>
</defs>
</svg>
