<svg width="91" height="32" viewBox="0 0 91 32" fill="none" xmlns="http://www.w3.org/2000/svg">
<path d="M38.8319 23.8649H42.7519V18.9984H46.6076C49.721 18.9984 51.8259 16.7085 51.8259 13.538C51.8259 10.3665 49.721 8.12036 46.6076 8.12036H38.8319V23.8649ZM76.1687 23.8649H80.0877L80.068 14.6514L86.5339 23.8649H90.8183V8.12036H86.8994L86.9077 17.7202L80.1322 8.12036H76.1687V23.8649ZM57.9502 23.8649H69.533V20.5623H61.8712V8.12036H57.9512L57.9502 23.8649ZM42.7529 15.6957V11.423H45.8694C47.1678 11.423 47.8408 12.2822 47.8408 13.538C47.8408 14.7928 47.1678 15.6957 45.8021 15.6957H42.7529Z" fill="#28A8E0"/>
<path d="M32.4022 0H0V31.8216H32.4022V0Z" fill="#F7E82E"/>
<path fill-rule="evenodd" clip-rule="evenodd" d="M6.53223 11.5318C7.40091 11.061 8.61748 10.6899 9.59177 10.6899C11.4524 10.6899 11.8831 11.5318 12.7973 11.5318C13.7116 11.5318 14.6506 10.6899 16.3414 10.6899C17.88 10.6899 18.6928 11.5318 20.0595 11.5318C21.4293 11.5318 21.1445 10.6899 23.0724 10.6899C24.991 10.6899 25.869 11.5318 25.869 11.5318V13.6783C25.869 13.6783 24.845 12.7825 23.235 12.7612C21.6374 12.7429 21.6798 13.6783 20.0636 13.6783C18.4463 13.6783 18.3169 12.7612 16.418 12.7612C14.5202 12.7612 14.2334 13.6783 12.7673 13.6783C11.297 13.6783 11.0216 12.7235 9.49031 12.7429C7.95898 12.7612 6.53223 13.6783 6.53223 13.6783V11.5318Z" fill="#28A8E0"/>
<path fill-rule="evenodd" clip-rule="evenodd" d="M6.53223 16.5377C7.40091 16.0659 8.61748 15.6968 9.59177 15.6968C11.4524 15.6968 11.8831 16.5377 12.7973 16.5377C13.7116 16.5377 14.6506 15.6968 16.3414 15.6968C17.88 15.6968 18.6928 16.5377 20.0595 16.5377C21.4293 16.5377 21.1445 15.6968 23.0724 15.6968C24.991 15.6968 25.869 16.5377 25.869 16.5377V18.6852C25.869 18.6852 24.845 17.7833 23.235 17.767C21.6374 17.7518 21.6798 18.6852 20.0636 18.6852C18.4463 18.6852 18.3169 17.767 16.418 17.767C14.5202 17.767 14.2334 18.6852 12.7673 18.6852C11.297 18.6852 11.0216 17.7325 9.49031 17.7518C7.95898 17.767 6.53223 18.6852 6.53223 18.6852V16.5377Z" fill="#28A8E0"/>
<path fill-rule="evenodd" clip-rule="evenodd" d="M6.53223 21.5394C7.40091 21.0656 8.61748 20.6975 9.59177 20.6975C11.4524 20.6975 11.8831 21.5394 12.7973 21.5394C13.7116 21.5394 14.6506 20.6975 16.3414 20.6975C17.88 20.6975 18.6928 21.5394 20.0595 21.5394C21.4293 21.5394 21.1445 20.6975 23.0724 20.6975C24.991 20.6975 25.869 21.5394 25.869 21.5394V23.6931C25.869 23.6931 24.845 22.7901 23.235 22.7708C21.6374 22.7546 21.6798 23.6931 20.0636 23.6931C18.4463 23.6931 18.3169 22.7708 16.418 22.7708C14.5202 22.7708 14.2334 23.6931 12.7673 23.6931C11.297 23.6931 11.0216 22.7373 9.49031 22.7546C7.95898 22.7708 6.53223 23.6931 6.53223 23.6931V21.5394Z" fill="#28A8E0"/>
<path fill-rule="evenodd" clip-rule="evenodd" d="M15.2843 28.4823L17.7371 16.379L9.02228 20.1433L14.1153 4.25134H18.2641L13.4289 15.2687L22.0339 11.8501L15.2843 28.4823Z" fill="#E62A2B"/>
</svg>
