<svg width="118" height="32" viewBox="0 0 118 32" fill="none" xmlns="http://www.w3.org/2000/svg">
<path d="M98.2905 13.175C97.5802 13.175 96.8699 13.3218 96.2121 13.6155C97.1066 16.7579 98.8693 19.4598 101.237 21.3981C101.737 21.7799 102.263 22.1323 102.789 22.426C103.421 21.4568 103.763 20.2821 103.763 19.078C103.763 15.8181 101.316 13.175 98.2905 13.175Z" fill="#E41C1D"/>
<path d="M110.866 16.4055C112.892 14.6728 117.97 10.9136 117.18 9.3865C116.549 8.15303 113.76 9.65081 110.63 11.5597C108.156 13.0869 108.683 11.2367 110.261 8.56418C111.656 6.21473 113.708 3.04296 112.55 2.19128C111.208 1.19276 107.078 6.71398 106.104 7.80061C105.131 8.88723 104.263 9.4746 104.736 6.44967C105.394 2.42622 105.526 0.311708 104.71 0.0473941C103.579 -0.305025 102.868 1.28086 101.185 5.71547C99.9743 8.88724 98.922 9.4746 98.7904 6.59651C98.6326 1.45707 97.4487 2.6318 97.0277 3.42474C95.7912 5.59799 95.3966 8.21177 95.6597 10.8549C96.6594 10.4438 97.7118 10.2088 98.7641 10.2088C103.473 10.2088 107.288 14.3497 107.288 19.4598C107.288 20.9282 106.973 22.3966 106.341 23.7182C109.025 24.2762 111.866 24.0119 113.997 22.8078C114.339 22.6022 115.207 22.0148 114.681 21.1925C113.602 19.5479 111.682 20.3996 109.603 19.7241C107.788 19.1661 109.419 17.639 110.866 16.4055Z" fill="#E41C1D"/>
<path d="M102.789 22.4847C102.263 23.2776 101.579 23.9237 100.816 24.3642C100.027 24.8048 99.1588 25.0397 98.2906 25.0103C95.265 25.0103 92.792 22.3672 92.792 19.1073C92.8183 17.9326 93.134 16.7579 93.7391 15.7887C94.3442 14.8196 95.2124 14.0854 96.1858 13.6448C95.9227 12.7344 95.7386 11.824 95.6597 10.8842C92.4763 12.2352 90.24 15.5831 90.24 19.4891C90.24 24.5992 94.0548 28.7401 98.7641 28.7401C100.316 28.7401 101.842 28.2996 103.158 27.4185C104.499 26.5375 105.578 25.2747 106.341 23.7475C105.105 23.5419 103.921 23.1014 102.789 22.4847Z" fill="#5B5D5F"/>
<path d="M6.78772 14.9664C6.78772 14.7902 6.70879 14.614 6.60356 14.4965C6.49832 14.3791 6.34047 14.3203 6.18261 14.3203H0.710333C0.552479 14.3203 0.394623 14.3791 0.289387 14.4965C0.184151 14.614 0.105225 14.7902 0.105225 14.9664C0.105225 15.1426 0.184151 15.3188 0.289387 15.4363C0.394623 15.5538 0.552479 15.6125 0.710333 15.6125H2.81506V22.6022C2.81506 22.7784 2.89398 22.9546 2.99922 23.1014C3.13076 23.2189 3.28862 23.307 3.44647 23.307C3.60433 23.307 3.76218 23.2483 3.89373 23.1014C4.02527 22.9839 4.07789 22.8077 4.07789 22.6022V15.6125H6.18261C6.34047 15.6125 6.49832 15.5538 6.60356 15.4363C6.70879 15.3188 6.78772 15.1426 6.78772 14.9664Z" fill="#1A1818"/>
<path d="M8.60302 16.4055C8.20838 16.4055 7.81375 16.4936 7.44542 16.6698C7.07709 16.846 6.73508 17.1104 6.47198 17.4334C6.18259 17.7565 5.97211 18.1382 5.84057 18.5494C5.68272 18.9606 5.6301 19.4304 5.6301 19.871V19.9003C5.6301 20.3702 5.70902 20.8108 5.84057 21.2513C5.99842 21.6918 6.2089 22.0736 6.4983 22.3966C6.7877 22.7197 7.12971 22.984 7.52435 23.1308C7.89267 23.3071 8.31362 23.3952 8.70825 23.3658C9.1292 23.3952 9.55014 23.3071 9.97109 23.1308C10.3657 22.9546 10.734 22.6903 11.0498 22.3673C11.1024 22.3085 11.155 22.2498 11.1813 22.1617C11.2076 22.0736 11.2339 21.9855 11.2339 21.8974C11.2339 21.7212 11.155 21.5743 11.0498 21.4569C10.9445 21.3394 10.813 21.2806 10.6551 21.2806C10.5236 21.2806 10.392 21.3394 10.2868 21.4275C9.86585 21.868 9.31336 22.1323 8.73456 22.103C8.28731 22.1323 7.86636 21.9561 7.52435 21.6331C7.18233 21.31 6.97186 20.8695 6.89293 20.3702H10.8919C11.0498 20.3702 11.2076 20.3115 11.3128 20.194C11.4181 20.0765 11.497 19.9003 11.497 19.7241C11.497 18.1089 10.5236 16.4055 8.60302 16.4055ZM8.60302 17.5802C9.62907 17.5802 10.1289 18.4319 10.2605 19.313H6.94555C7.07709 18.2851 7.76113 17.5802 8.60302 17.5802Z" fill="#1A1818"/>
<path d="M12.9177 13.9092C12.8388 13.9092 12.7599 13.9385 12.681 13.9679C12.602 13.9973 12.5494 14.056 12.4705 14.1148C12.4179 14.1735 12.3652 14.2616 12.3389 14.3203C12.3126 14.4084 12.2863 14.4965 12.2863 14.5847V22.6315C12.2863 22.7197 12.3126 22.8078 12.3389 22.8959C12.3652 22.984 12.4179 23.0427 12.4705 23.1308C12.5231 23.1895 12.602 23.2483 12.681 23.2776C12.7599 23.307 12.8388 23.3364 12.9177 23.3364C12.9967 23.3364 13.0756 23.3364 13.1545 23.2776C13.2334 23.2483 13.2861 23.1895 13.365 23.1308C13.4176 23.0721 13.4702 22.984 13.4965 22.8959C13.5228 22.8078 13.5492 22.7197 13.5492 22.6315V14.5847C13.5492 14.4084 13.4702 14.2322 13.365 14.1148C13.2334 13.9679 13.0756 13.9092 12.9177 13.9092Z" fill="#1A1818"/>
<path d="M17.8375 19.5185L19.6265 17.639C19.7054 17.5802 19.7581 17.4921 19.7844 17.404C19.8107 17.3159 19.837 17.2278 19.837 17.1103C19.837 17.0222 19.8107 16.9341 19.7844 16.8754C19.7581 16.7873 19.7054 16.7285 19.6528 16.6698C19.6002 16.6111 19.5213 16.5523 19.4687 16.523C19.3897 16.4936 19.3108 16.4642 19.2582 16.4642C19.1793 16.4642 19.074 16.4936 18.9951 16.523C18.9162 16.5523 18.8372 16.6404 18.7846 16.6992L15.9696 19.8122V14.5553C15.9696 14.3791 15.8906 14.2029 15.7854 14.0854C15.6802 13.9679 15.5223 13.8798 15.3644 13.8798C15.2066 13.8798 15.0487 13.9386 14.9435 14.0854C14.8383 14.2029 14.7593 14.3791 14.7593 14.5553V22.6022C14.7593 22.6903 14.7856 22.7784 14.812 22.8665C14.8383 22.9546 14.8909 23.0133 14.9435 23.1015C14.9961 23.1896 15.075 23.2189 15.154 23.2483C15.2329 23.2777 15.3118 23.307 15.3908 23.307C15.4697 23.307 15.5486 23.307 15.6275 23.2483C15.7065 23.2189 15.7591 23.1602 15.838 23.1015C15.8906 23.0427 15.9432 22.9546 15.9696 22.8665C15.9959 22.7784 16.0222 22.6903 16.0222 22.6022V21.4862L17.0219 20.4289L18.9162 22.984C18.9688 23.0721 19.0477 23.1602 19.1529 23.2189C19.2319 23.2777 19.3371 23.307 19.4423 23.307C19.5476 23.307 19.6791 23.2777 19.7581 23.2189C19.8633 23.1602 19.9422 23.0427 19.9948 22.9252C20.0475 22.8078 20.0475 22.6903 20.0475 22.5435C20.0211 22.426 19.9685 22.3085 19.8896 22.191L17.8375 19.5185Z" fill="#1A1818"/>
<path d="M23.2309 16.4055C21.4155 16.4055 19.9948 17.9327 19.9948 19.871V19.9003C19.9948 21.8386 21.4155 23.3658 23.2045 23.3658C25.0199 23.3658 26.4406 21.8386 26.4406 19.9003V19.871C26.4406 17.9033 25.0462 16.4055 23.2309 16.4055ZM21.2577 19.871C21.2577 19.5773 21.284 19.2836 21.3892 19.0193C21.4945 18.755 21.626 18.4907 21.8102 18.2851C21.9943 18.0795 22.2048 17.9033 22.4416 17.8152C22.6784 17.6977 22.9415 17.639 23.2045 17.639C23.4676 17.639 23.7307 17.6977 23.9675 17.8152C24.2043 17.9327 24.4411 18.1089 24.6252 18.3145C24.8094 18.52 24.9672 18.7843 25.0462 19.0487C25.1514 19.313 25.204 19.6067 25.1777 19.9003V19.9297C25.1777 20.2234 25.1251 20.5171 25.0462 20.7814C24.9409 21.0457 24.8094 21.31 24.6252 21.5156C24.4411 21.7212 24.2306 21.8974 23.9938 21.9855C23.757 22.103 23.4939 22.1617 23.2309 22.1323C22.9678 22.1323 22.7047 22.0736 22.4679 21.9561C22.2311 21.8386 22.0206 21.6918 21.8365 21.4569C21.6523 21.2513 21.5208 20.987 21.4155 20.7226C21.3103 20.4583 21.2577 20.1647 21.2577 19.871Z" fill="#1A1818"/>
<path d="M34.0176 16.4055C33.623 16.4055 33.2283 16.4936 32.8863 16.6698C32.5443 16.846 32.2286 17.1397 31.9918 17.4921C31.7813 17.1397 31.4919 16.8754 31.1762 16.6698C30.8342 16.4936 30.4659 16.4055 30.0975 16.4055C29.7818 16.4055 29.4661 16.4643 29.1767 16.6111C28.8873 16.7579 28.6242 16.9635 28.4138 17.2278V17.1691C28.4138 16.9929 28.3348 16.8167 28.2296 16.6992C28.1244 16.5817 27.9665 16.4936 27.8087 16.4936C27.6508 16.4936 27.493 16.5524 27.3877 16.6992C27.2825 16.8167 27.2036 16.9929 27.2036 17.1691V22.6316C27.2036 22.7197 27.2299 22.8078 27.2562 22.8959C27.2825 22.984 27.3351 23.0427 27.3877 23.1308C27.4403 23.1896 27.5193 23.2483 27.5982 23.2777C27.6771 23.3071 27.756 23.3364 27.835 23.3364C27.9139 23.3364 27.9928 23.3364 28.0718 23.2777C28.1507 23.2483 28.2033 23.1896 28.2822 23.1308C28.3348 23.0721 28.3875 22.984 28.4138 22.8959C28.4401 22.8078 28.4664 22.7197 28.4664 22.6316V19.4598C28.4664 18.4319 29.0715 17.6684 29.8871 17.6684C30.729 17.6684 31.2025 18.2851 31.2025 19.3423V22.6316C31.2025 22.7197 31.2288 22.8078 31.2551 22.8959C31.2815 22.984 31.3341 23.0427 31.3867 23.1308C31.4393 23.1896 31.5182 23.2483 31.5972 23.2777C31.6761 23.3071 31.755 23.3364 31.8339 23.3364C31.9129 23.3364 31.9918 23.3364 32.0707 23.2777C32.1497 23.2483 32.2023 23.1896 32.2812 23.1308C32.3338 23.0721 32.3864 22.984 32.4127 22.8959C32.4391 22.8078 32.4654 22.7197 32.4654 22.6316V19.4304C32.4654 18.4026 33.0442 17.6977 33.886 17.6977C34.7279 17.6977 35.2015 18.2851 35.2015 19.4011V22.661C35.2015 22.8372 35.2804 23.0134 35.3857 23.1308C35.4909 23.2483 35.6488 23.3364 35.8066 23.3364C35.9645 23.3364 36.1223 23.2777 36.2276 23.1308C36.3328 23.0134 36.4117 22.8372 36.4117 22.661V19.1955C36.3591 17.4334 35.4646 16.4055 34.0176 16.4055Z" fill="#1A1818"/>
<path d="M39.7529 14.4378C39.5951 14.4378 39.4635 14.4965 39.3583 14.614C39.2531 14.7315 39.2004 14.9077 39.1741 15.0545V22.7784C39.1741 22.9546 39.2531 23.1014 39.3583 23.2189C39.4635 23.3364 39.6214 23.3951 39.7529 23.3951C39.9108 23.3951 40.0423 23.3364 40.1476 23.2189C40.2528 23.1014 40.3317 22.9546 40.3317 22.7784V15.0545C40.3317 14.8783 40.2528 14.7315 40.1476 14.614C40.0686 14.4965 39.9108 14.4378 39.7529 14.4378Z" fill="#1A1818"/>
<path d="M44.8306 16.5817C44.4623 16.5817 44.1203 16.6405 43.8046 16.8167C43.4889 16.9635 43.1995 17.2278 42.9627 17.5215V17.2866C42.9627 17.1104 42.8838 16.9635 42.7785 16.846C42.6733 16.7286 42.5417 16.6698 42.3839 16.6698C42.226 16.6698 42.0945 16.7286 41.9892 16.846C41.884 16.9635 41.8314 17.1104 41.8051 17.2866V22.7784C41.8051 22.8665 41.8314 22.9546 41.8577 23.0134C41.884 23.1015 41.9366 23.1602 41.9892 23.2189C42.0419 23.2777 42.0945 23.3071 42.1734 23.3364C42.2523 23.3658 42.305 23.3658 42.3839 23.3658C42.4628 23.3658 42.5417 23.3658 42.5944 23.3364C42.6733 23.3071 42.7259 23.2483 42.7785 23.1896C42.8311 23.1308 42.8838 23.0721 42.9101 22.984C42.9364 22.8959 42.9627 22.8372 42.9627 22.7491V19.5479C42.9627 19.313 42.989 19.0487 43.0679 18.8431C43.1468 18.6081 43.2784 18.4026 43.4099 18.2263C43.5678 18.0501 43.752 17.9033 43.9624 17.8152C44.1729 17.7271 44.3834 17.6977 44.5938 17.6977C45.541 17.6977 46.0935 18.3438 46.0935 19.4598V22.7491C46.0935 22.8372 46.1198 22.9253 46.1461 22.984C46.1724 23.0721 46.225 23.1308 46.2776 23.1896C46.3302 23.2483 46.3829 23.2777 46.4618 23.3364C46.5407 23.3658 46.5933 23.3658 46.6723 23.3658C46.7512 23.3658 46.8301 23.3658 46.8827 23.3364C46.9617 23.3071 47.0143 23.2483 47.0669 23.1896C47.1195 23.1308 47.1721 23.0721 47.1984 22.984C47.2247 22.8959 47.2511 22.8372 47.2511 22.7491V19.2249C47.2247 17.639 46.2776 16.5817 44.8306 16.5817Z" fill="#1A1818"/>
<path d="M53.6441 14.056C53.5652 14.056 53.4863 14.056 53.4336 14.0854C53.3547 14.1148 53.3021 14.1735 53.2495 14.2322C53.1969 14.291 53.1442 14.3497 53.1179 14.4378C53.0916 14.5259 53.0653 14.5847 53.0653 14.6728V17.6683C52.8022 17.3159 52.4865 17.0516 52.1182 16.8754C51.7499 16.6992 51.3552 16.6111 50.9606 16.6111C50.566 16.6111 50.1713 16.6992 49.803 16.8754C49.4347 17.0516 49.119 17.3159 48.8296 17.639C48.5665 17.962 48.3297 18.3438 48.1981 18.7549C48.0666 19.1661 47.9877 19.6066 48.014 20.0765V20.1059C47.9877 20.5464 48.0666 20.9869 48.1981 21.3981C48.3297 21.8092 48.5665 22.191 48.8296 22.5141C49.0927 22.8371 49.4347 23.1014 49.803 23.2483C50.1713 23.4245 50.566 23.5126 50.9606 23.5126C51.3552 23.5126 51.7762 23.4245 52.1445 23.2189C52.5128 23.0133 52.8285 22.749 53.0916 22.3672V22.8078C53.0916 22.8959 53.1179 22.984 53.1442 23.0427C53.1706 23.1308 53.2232 23.1896 53.2758 23.2483C53.3284 23.307 53.381 23.3364 53.4599 23.3658C53.5389 23.3951 53.5915 23.3951 53.6704 23.3951C53.7494 23.3951 53.8283 23.3951 53.8809 23.3658C53.9598 23.3364 54.0124 23.2777 54.0651 23.2189C54.1177 23.1602 54.1703 23.1014 54.1966 23.0133C54.2229 22.9252 54.2492 22.8665 54.2492 22.7784V14.6728C54.2492 14.5847 54.2229 14.4966 54.1966 14.4378C54.1703 14.3497 54.1177 14.291 54.0651 14.2322C54.0124 14.1735 53.9598 14.1441 53.8809 14.1148C53.7757 14.0854 53.723 14.056 53.6441 14.056ZM53.1179 20.0178C53.1179 20.6345 52.9075 21.2219 52.5391 21.6624C52.1708 22.1029 51.6446 22.3379 51.1184 22.3379C50.8554 22.3379 50.5923 22.2791 50.3555 22.1617C50.1187 22.0442 49.9082 21.868 49.7241 21.6624C49.5399 21.4568 49.4084 21.1925 49.3031 20.9282C49.2242 20.6639 49.1716 20.3408 49.1716 20.0472V20.0178C49.1716 18.6668 49.9608 17.7271 51.1184 17.7271C51.3815 17.7271 51.6446 17.7858 51.8814 17.9033C52.1182 18.0207 52.355 18.197 52.5391 18.4025C52.7233 18.6081 52.8812 18.8724 52.9601 19.1367C53.0653 19.4304 53.1179 19.7241 53.1179 20.0178Z" fill="#1A1818"/>
<path d="M58.2745 16.5817C56.4855 16.5817 55.0648 18.1089 55.0648 20.0472V20.0765C55.0648 21.9855 56.4592 23.5126 58.2482 23.5126C60.0372 23.5126 61.4579 21.9855 61.4579 20.0765V20.0472C61.4579 18.0795 60.0635 16.5817 58.2745 16.5817ZM56.2224 20.0178C56.2224 19.7241 56.2487 19.4011 56.354 19.1368C56.4592 18.8431 56.5907 18.6081 56.8012 18.3732C56.9854 18.1676 57.2222 17.9914 57.4589 17.8739C57.6957 17.7565 57.9851 17.6977 58.2482 17.6977C58.5113 17.6977 58.8007 17.7565 59.0375 17.8739C59.3006 17.9914 59.511 18.1676 59.6952 18.3732C59.8794 18.5788 60.0372 18.8431 60.1425 19.1368C60.2477 19.4304 60.3003 19.7241 60.3003 20.0178V20.0472C60.3003 20.3409 60.2477 20.6639 60.1688 20.9282C60.0635 21.2219 59.932 21.4569 59.7215 21.6918C59.5374 21.8974 59.3006 22.0736 59.0638 22.1911C58.827 22.3085 58.5376 22.3673 58.2745 22.3673C58.0114 22.3673 57.7483 22.3085 57.4853 22.1911C57.2222 22.0736 57.0117 21.8974 56.8275 21.6918C56.6434 21.4862 56.4855 21.2219 56.3803 20.9282C56.275 20.6345 56.2224 20.3409 56.2224 20.0178Z" fill="#1A1818"/>
<path d="M65.3253 16.5817C64.957 16.5817 64.6149 16.6405 64.2992 16.8167C63.9835 16.9635 63.6941 17.2278 63.4573 17.5215V17.2866C63.4573 17.1104 63.3784 16.9635 63.2732 16.846C63.1679 16.7286 63.0364 16.6698 62.8785 16.6698C62.7207 16.6698 62.5891 16.7286 62.4839 16.846C62.3787 16.9635 62.3261 17.1104 62.2997 17.2866V22.7784C62.2997 22.8665 62.3261 22.9546 62.3524 23.0134C62.3787 23.1015 62.4313 23.1602 62.4839 23.2189C62.5365 23.2777 62.5891 23.3071 62.6681 23.3658C62.747 23.3952 62.7996 23.3952 62.8785 23.3952C62.9575 23.3952 63.0364 23.3952 63.089 23.3658C63.1679 23.3364 63.2206 23.2777 63.2732 23.2189C63.3258 23.1602 63.3784 23.1015 63.4047 23.0134C63.431 22.9253 63.4573 22.8665 63.4573 22.7784V19.5773C63.4573 19.3423 63.4837 19.078 63.5626 18.8724C63.6415 18.6375 63.7731 18.4319 63.9046 18.2557C64.0625 18.0795 64.2466 17.9327 64.4571 17.8446C64.6676 17.7565 64.878 17.7271 65.0885 17.7271C66.0356 17.7271 66.5881 18.3732 66.5881 19.4892V22.7784C66.5881 22.8665 66.6144 22.9546 66.6407 23.0134C66.667 23.1015 66.7197 23.1602 66.7723 23.2189C66.8249 23.2777 66.8775 23.3071 66.9564 23.3658C67.0354 23.3952 67.088 23.3952 67.1669 23.3952C67.2458 23.3952 67.3248 23.3952 67.3774 23.3658C67.4563 23.3364 67.5089 23.2777 67.5616 23.2189C67.6142 23.1602 67.6668 23.1015 67.6931 23.0134C67.7194 22.9253 67.7457 22.8665 67.7457 22.7784V19.2542C67.7194 17.639 66.7986 16.5817 65.3253 16.5817Z" fill="#1A1818"/>
<path d="M71.4553 16.5817C71.0607 16.5817 70.6661 16.6698 70.2977 16.846C69.9294 17.0222 69.6137 17.2866 69.3243 17.6096C69.0612 17.9327 68.8244 18.3144 68.6929 18.7256C68.5614 19.1368 68.4824 19.5773 68.4824 20.0178V20.0472C68.4824 20.5171 68.535 20.9576 68.6929 21.3687C68.8508 21.7799 69.0612 22.1617 69.3506 22.4847C69.64 22.8078 69.982 23.0721 70.3504 23.2189C70.7187 23.3952 71.1396 23.4539 71.5343 23.4539C71.9552 23.4833 72.3762 23.3952 72.7708 23.2189C73.1654 23.0427 73.5338 22.7784 73.8495 22.4554C73.9021 22.3966 73.9547 22.3379 73.981 22.2792C74.0073 22.2204 74.0336 22.1323 74.0336 22.0442C74.0336 21.9561 74.0073 21.8974 73.981 21.8386C73.9547 21.7799 73.9021 21.7212 73.8758 21.6624C73.8232 21.6037 73.7705 21.5743 73.7179 21.545C73.6653 21.5156 73.5864 21.5156 73.5338 21.5156C73.4022 21.5156 73.297 21.5743 73.1917 21.6624C72.7445 22.1323 72.1657 22.3673 71.5869 22.3673C71.1133 22.3673 70.6661 22.1911 70.2977 21.868C69.9294 21.5156 69.7189 21.0457 69.6663 20.5171H73.7705C73.9021 20.5171 74.0336 20.4583 74.1389 20.3409C74.2441 20.2234 74.2967 20.0765 74.2967 19.9297C74.323 18.2557 73.3233 16.5817 71.4553 16.5817ZM69.6663 19.5479C69.8242 18.4319 70.5345 17.6684 71.429 17.6684C72.534 17.6684 73.0339 18.6081 73.1654 19.5479H69.6663Z" fill="#1A1818"/>
<path d="M77.4538 19.4304C76.7171 19.1955 76.0331 18.9605 76.0331 18.4906V18.4613C76.0331 17.9914 76.4277 17.6977 77.0328 17.6977C77.559 17.7271 78.0589 17.8739 78.5061 18.1676C78.5851 18.197 78.664 18.2263 78.7692 18.2263C78.9008 18.2263 79.0323 18.1676 79.1376 18.0795C79.2428 17.9914 79.2954 17.8445 79.2954 17.6977C79.2954 17.5802 79.2691 17.4921 79.2165 17.404C79.1639 17.3159 79.0849 17.2278 79.006 17.1984C78.4009 16.846 77.7432 16.6404 77.0591 16.6404C75.7963 16.6404 74.9281 17.4334 74.9281 18.5787V18.6081C74.9281 19.9003 76.112 20.2821 76.9802 20.517C77.7695 20.752 78.3483 20.9869 78.3483 21.4862V21.5156C78.3483 22.0442 77.9273 22.3672 77.2696 22.3672C76.6382 22.3672 76.0068 22.1323 75.4806 21.7211C75.4017 21.6624 75.2964 21.633 75.1912 21.633C75.086 21.633 74.9807 21.6624 74.9018 21.7211C74.8229 21.7799 74.7439 21.8974 74.7176 22.0148C74.6913 22.1323 74.6913 22.2498 74.7176 22.3672C74.7439 22.4847 74.8229 22.5728 74.9018 22.6609C75.5858 23.1896 76.4014 23.4832 77.2433 23.4832C78.5851 23.4832 79.4796 22.6609 79.4796 21.4568V21.3981C79.427 20.0765 78.243 19.6947 77.4538 19.4304Z" fill="#1A1818"/>
<path d="M80.9792 16.6698C80.8213 16.6698 80.6898 16.7285 80.5846 16.846C80.4793 16.9634 80.4267 17.1103 80.4267 17.2865V22.7784C80.4267 22.8665 80.453 22.9546 80.4793 23.0133C80.5056 23.1014 80.5582 23.1601 80.6109 23.2189C80.6635 23.2776 80.7161 23.307 80.795 23.3657C80.874 23.3951 80.9266 23.3951 81.0055 23.3951C81.0844 23.3951 81.1633 23.3951 81.216 23.3657C81.2949 23.3363 81.3475 23.2776 81.4001 23.2189C81.4528 23.1601 81.5054 23.1014 81.5317 23.0133C81.558 22.9252 81.5843 22.8665 81.5843 22.7784V17.2865C81.5843 17.1984 81.558 17.1103 81.5317 17.0515C81.5054 16.9634 81.4528 16.9047 81.4001 16.846C81.3475 16.7872 81.2949 16.7579 81.216 16.6991C81.137 16.6698 81.0581 16.6404 80.9792 16.6698Z" fill="#1A1818"/>
<path d="M87.2145 17.3746C86.7672 16.8754 86.0832 16.6404 85.215 16.6404C84.5309 16.6404 83.8732 16.7873 83.2418 17.081C83.1366 17.1397 83.0313 17.2278 82.9787 17.3453C82.9261 17.4628 82.8998 17.6096 82.9261 17.7271C82.9524 17.8445 83.005 17.962 83.1102 18.0501C83.2155 18.1382 83.3207 18.1676 83.426 18.1676C83.5049 18.1676 83.5575 18.1382 83.6364 18.1089C84.11 17.8739 84.6099 17.7564 85.1097 17.7564C85.8464 17.7564 86.7409 18.0207 86.7409 19.3423V19.3717C86.1884 19.2248 85.6359 19.1367 85.0571 19.1367C83.426 19.1367 82.3999 19.9591 82.3999 21.31V21.3394C82.3999 22.7197 83.5838 23.4539 84.7414 23.4539C85.1097 23.4539 85.4781 23.3951 85.8201 23.2483C86.1621 23.1015 86.4778 22.8665 86.7409 22.6022V22.8078C86.7409 22.8959 86.7672 22.9546 86.7935 23.0427C86.8198 23.1015 86.8724 23.1896 86.9251 23.2483C86.9777 23.307 87.0303 23.3364 87.1092 23.3658C87.1882 23.3951 87.2408 23.3951 87.3197 23.3951C87.3986 23.3951 87.4512 23.3951 87.5302 23.3658C87.6091 23.3364 87.6617 23.2777 87.7143 23.2483C87.7669 23.1896 87.8196 23.1308 87.8459 23.0427C87.8722 22.9546 87.8985 22.8959 87.8985 22.8078V19.3423C87.9248 18.9899 87.8722 18.6375 87.767 18.2851C87.6091 17.9326 87.4249 17.639 87.2145 17.3746ZM86.7672 20.3702V20.8695C86.7672 21.7799 85.9779 22.4554 84.9256 22.4554C84.2678 22.4554 83.5838 22.1029 83.5838 21.3394V21.31C83.5838 20.5758 84.1889 20.1353 85.1624 20.1353C85.6885 20.1353 86.241 20.194 86.7672 20.3702Z" fill="#1A1818"/>
<path d="M0.0263062 30.7666C0.0263062 30.6785 0.0263078 30.5904 0.0526168 30.5023L0.394633 29.0926H0.105234L0.184162 28.7695H0.473561L0.631415 28.0353H0.947122L0.76296 28.7695H1.44699L1.36807 29.0926H0.684032L0.342016 30.4729C0.342016 30.5316 0.342016 30.5904 0.342016 30.6491C0.342016 30.8253 0.447252 30.8841 0.631415 30.8841C0.736651 30.8841 0.841886 30.8547 0.947122 30.796L0.868197 31.119C0.76296 31.1777 0.657723 31.2071 0.526178 31.1777C0.236779 31.2365 0.0263062 31.0896 0.0263062 30.7666Z" fill="#1A1818"/>
<path d="M0.552489 31.2952C0.210472 31.2952 0 31.0896 0 30.7666C0 30.6785 -4.01836e-07 30.5904 0.0263086 30.5023L0.342018 29.1513H0.0526193L0.157854 28.7695H0.447255L0.605109 28.0353H0.999744L0.81558 28.7695H1.49962L1.42069 29.1513H0.736654L0.420944 30.5023C0.420944 30.561 0.420944 30.6197 0.420944 30.6785C0.420944 30.8253 0.499871 30.8841 0.684035 30.8841C0.789271 30.8841 0.894508 30.8547 0.973436 30.8253L1.05236 30.796L0.947125 31.2071H0.920816C0.789271 31.2658 0.684035 31.2952 0.552489 31.2952ZM0.157854 29.0632H0.447255L0.105237 30.5316C0.0789275 30.6197 0.0789279 30.6785 0.0789279 30.7666C0.0789279 31.0309 0.26309 31.2071 0.552489 31.2071C0.657726 31.2071 0.762963 31.1777 0.868199 31.1484L0.920816 30.9134C0.841889 30.9428 0.762962 30.9722 0.657726 30.9722C0.368327 30.9722 0.342018 30.796 0.342018 30.6785C0.342018 30.6197 0.342018 30.561 0.342018 30.5023L0.684035 29.0632H1.36807L1.42069 28.8283H0.736654L0.920816 28.0941H0.684035L0.526181 28.8283H0.236782L0.157854 29.0632Z" fill="#1A1818"/>
<path d="M2.26257 27.8004H2.57828L2.26257 29.1807C2.3415 29.0633 2.47304 28.9458 2.57828 28.8577C2.70982 28.7696 2.84137 28.7402 2.99922 28.7402C3.07815 28.7402 3.18339 28.7402 3.26231 28.7696C3.34124 28.7989 3.42017 28.8577 3.49909 28.9164C3.55171 28.9751 3.60433 29.0633 3.65695 29.1807C3.68326 29.2688 3.70957 29.3863 3.70957 29.4744C3.70957 29.5919 3.68326 29.7387 3.65695 29.8562L3.34124 31.2071H2.99922L3.31493 29.8268C3.34124 29.7387 3.34124 29.6506 3.34124 29.5625C3.34124 29.5038 3.34124 29.4157 3.31493 29.3569C3.28862 29.2982 3.26231 29.2395 3.2097 29.1807C3.15708 29.122 3.10446 29.0926 3.05184 29.0633C2.99922 29.0339 2.9203 29.0339 2.86768 29.0339C2.68351 29.0633 2.49935 29.1514 2.3678 29.2688C2.23626 29.4157 2.13102 29.5919 2.10471 29.7975L1.78901 31.1484H1.4733L2.26257 27.8004Z" fill="#1A1818"/>
<path d="M3.34122 31.2365H2.94658L3.2886 29.8268C3.31491 29.7387 3.31491 29.6506 3.31491 29.5625C3.31491 29.5037 3.31491 29.445 3.2886 29.3863C3.26229 29.3275 3.23598 29.2688 3.18336 29.2394C3.13074 29.2101 3.07813 29.1513 3.02551 29.1513C2.97289 29.1219 2.92027 29.1219 2.86765 29.1219C2.68349 29.1513 2.52564 29.2394 2.39409 29.3569C2.26255 29.5037 2.15731 29.6799 2.131 29.8561L1.78898 31.2365H1.39435V31.1777L2.20993 27.7416H2.60456L2.31516 29.0338C2.39409 28.9164 2.49933 28.8576 2.63087 28.7989C2.73611 28.7402 2.86765 28.7108 2.9992 28.7108C3.10443 28.7108 3.18336 28.7108 3.2886 28.7402C3.36752 28.7695 3.47276 28.8283 3.52538 28.9164C3.60431 29.0045 3.65692 29.0926 3.68323 29.1807C3.70954 29.2688 3.73585 29.3863 3.73585 29.5037C3.73585 29.6212 3.70954 29.768 3.68323 29.8855L3.34122 31.2365ZM3.02551 31.1484H3.26229L3.578 29.8268C3.60431 29.7093 3.63062 29.5918 3.63062 29.4744C3.63062 29.3863 3.63061 29.2688 3.578 29.1807C3.55169 29.0926 3.49907 29.0045 3.44645 28.9457C3.39383 28.887 3.31491 28.8283 3.23598 28.7989C3.15705 28.7695 3.07813 28.7402 2.97289 28.7695C2.84135 28.7695 2.68349 28.8283 2.57825 28.887C2.44671 28.9457 2.34147 29.0632 2.26255 29.1807L2.15731 29.2982L2.49933 27.8004H2.26255L1.47327 31.119H1.71006L2.02577 29.7974C2.07838 29.5918 2.15731 29.3863 2.31516 29.2394C2.47302 29.0926 2.63087 29.0045 2.84135 28.9751C2.92027 28.9751 2.97289 28.9751 3.05182 29.0045C3.10443 29.0338 3.18336 29.0632 3.23598 29.1219C3.2886 29.1807 3.31491 29.2394 3.34122 29.2982C3.36753 29.3569 3.36753 29.445 3.36753 29.5331C3.36753 29.6212 3.36753 29.7093 3.34122 29.8268L3.02551 31.1484Z" fill="#1A1818"/>
<path d="M4.44624 30.2086C4.44624 30.2967 4.44624 30.4142 4.47255 30.5023C4.49886 30.5904 4.55148 30.6785 4.6041 30.7372C4.65671 30.796 4.73564 30.8547 4.81457 30.8841C4.8935 30.9134 4.97242 30.9428 5.07766 30.9134C5.31444 30.9134 5.55122 30.8253 5.73539 30.6198L5.89324 30.8547C5.65646 31.0897 5.36706 31.2071 5.05135 31.2071C4.91981 31.2071 4.81457 31.2071 4.68302 31.1484C4.57779 31.0897 4.47255 31.0309 4.36731 30.9428C4.28839 30.8547 4.20946 30.7372 4.15684 30.5904C4.10422 30.4729 4.07791 30.3261 4.10422 30.1792C4.10422 29.7975 4.23577 29.445 4.47255 29.1514C4.70933 28.887 5.02504 28.7108 5.36706 28.6815C5.47229 28.6815 5.57753 28.6815 5.68277 28.7402C5.788 28.7696 5.86693 28.8577 5.94586 28.9458C6.02478 29.0339 6.0774 29.1513 6.13002 29.2688C6.15633 29.3863 6.18264 29.5038 6.18264 29.6212C6.18264 29.7681 6.15633 29.9443 6.10371 30.0911H4.41993C4.44624 30.1499 4.41993 30.1792 4.44624 30.2086ZM5.86693 29.8562C5.86693 29.7975 5.89324 29.7387 5.89324 29.68C5.89324 29.5919 5.89324 29.5038 5.86693 29.445C5.84062 29.3569 5.81431 29.2982 5.76169 29.2395C5.70908 29.1807 5.65646 29.122 5.57753 29.0926C5.4986 29.0633 5.44599 29.0633 5.36706 29.0633C5.15659 29.0633 4.97242 29.1514 4.81457 29.2982C4.65671 29.445 4.55148 29.6506 4.49886 29.8562H5.86693Z" fill="#1A1818"/>
<path d="M5.07762 31.2952C4.94608 31.2952 4.81453 31.2952 4.7093 31.2365C4.57775 31.1777 4.47252 31.119 4.39359 31.0015C4.28835 30.9134 4.23573 30.7666 4.18312 30.6491C4.1305 30.5023 4.10419 30.3554 4.1305 30.238C4.1305 29.8562 4.26204 29.4744 4.49882 29.1807C4.73561 28.887 5.05131 28.7108 5.41964 28.7108C5.52488 28.7108 5.65642 28.7108 5.76166 28.7696C5.86689 28.8283 5.97213 28.887 6.05106 28.9751C6.12998 29.0632 6.20891 29.1807 6.23522 29.2982C6.28784 29.4157 6.28784 29.5331 6.28784 29.68C6.28784 29.8562 6.26153 30.003 6.20891 30.1499V30.1792H4.55144C4.55144 30.2086 4.55144 30.2086 4.55144 30.2086C4.55144 30.2967 4.55144 30.3848 4.57775 30.4729C4.60406 30.561 4.65668 30.6491 4.7093 30.7079C4.76192 30.7666 4.84084 30.8253 4.91977 30.8547C4.9987 30.8841 5.07762 30.9134 5.15655 30.8841C5.39333 30.8841 5.63011 30.796 5.78797 30.6198L5.81428 30.5904L6.02475 30.8841L5.99844 30.9134C5.68273 31.1777 5.39333 31.2952 5.07762 31.2952ZM5.36702 28.7696C5.05131 28.7989 4.73561 28.9458 4.49882 29.2101C4.26204 29.4744 4.15681 29.8268 4.15681 30.2086C4.15681 30.3554 4.18312 30.4729 4.20943 30.5904C4.26204 30.7079 4.31466 30.8253 4.4199 30.9134C4.49883 31.0015 4.60406 31.0896 4.7093 31.119C4.81453 31.1778 4.94608 31.1777 5.05132 31.1777C5.34072 31.1777 5.63011 31.0603 5.84059 30.8547L5.70904 30.6785C5.52488 30.8547 5.2881 30.9428 5.05132 30.9428C4.97239 30.9428 4.86715 30.9428 4.78823 30.8841C4.7093 30.8547 4.63037 30.796 4.55144 30.7079C4.49883 30.6491 4.44621 30.561 4.39359 30.4435C4.36728 30.3554 4.34097 30.238 4.36728 30.1499C4.36728 30.1205 4.36728 30.0911 4.36728 30.0618V30.0324H6.05106C6.10368 29.8855 6.12999 29.7387 6.12999 29.5919C6.12999 29.4744 6.12998 29.3569 6.07737 29.2394C6.05106 29.122 5.97213 29.0339 5.91951 28.9458C5.84059 28.8577 5.76166 28.7989 5.65642 28.7696C5.5775 28.7989 5.47226 28.7696 5.36702 28.7696ZM5.8932 29.8855H4.44621L4.47252 29.8268C4.52513 29.5919 4.63037 29.3863 4.78823 29.2394C4.94608 29.0926 5.15655 29.0045 5.36702 29.0045C5.44595 29.0045 5.52488 29.0045 5.6038 29.0339C5.68273 29.0632 5.73535 29.122 5.78797 29.1807C5.84059 29.2394 5.8932 29.3275 5.91951 29.4157C5.94582 29.5038 5.94582 29.5919 5.94582 29.68C5.94582 29.7387 5.94582 29.7974 5.91951 29.8562L5.8932 29.8855ZM4.52514 29.7974H5.81428C5.81428 29.7387 5.81428 29.7093 5.81428 29.6506C5.81428 29.5625 5.81428 29.5038 5.78797 29.4157C5.76166 29.3569 5.73535 29.2688 5.68273 29.2101C5.63011 29.1513 5.5775 29.122 5.52488 29.0926C5.47226 29.0632 5.39333 29.0632 5.31441 29.0632C5.13024 29.0632 4.94608 29.1513 4.81453 29.2688C4.68299 29.4157 4.57775 29.5919 4.52514 29.7974Z" fill="#1A1818"/>
<path d="M7.99796 28.7988H8.31366L8.4189 30.7078L9.44495 28.7695H9.70804L9.83959 30.7078L10.8656 28.7988H11.2077L9.8659 31.2364H9.5765L9.44495 29.3275L8.4189 31.2364H8.1295L7.99796 28.7988Z" fill="#1A1818"/>
<path d="M9.89218 31.2659H9.57647L9.47123 29.445L8.4978 31.2659H8.15578L7.97162 28.7402H8.36625L8.47149 30.561L9.44492 28.7108H9.76063L9.86587 30.561L10.8393 28.7402H11.2602L9.89218 31.2659ZM9.62909 31.1777H9.86587L11.155 28.8283H10.8919L9.81325 30.8253L9.68171 28.7989H9.47123L8.39256 30.8253L8.28733 28.8283H8.02424L8.18209 31.1777H8.41887L9.49754 29.1807L9.62909 31.1777Z" fill="#1A1818"/>
<path d="M11.2603 30.1792C11.2603 29.7974 11.3918 29.445 11.6286 29.1807C11.8654 28.9164 12.1811 28.7695 12.5231 28.7402C12.6546 28.7402 12.7862 28.7402 12.8914 28.7989C13.023 28.8576 13.1282 28.9164 13.2071 29.0339C13.2861 29.122 13.365 29.2688 13.4176 29.3863C13.4702 29.5331 13.4965 29.6506 13.4702 29.7974C13.4702 30.1792 13.3387 30.5316 13.1019 30.7959C12.8651 31.0603 12.5494 31.2071 12.2074 31.2365C12.0758 31.2365 11.9443 31.2365 11.8391 31.1777C11.7075 31.119 11.6023 31.0603 11.5234 30.9428C11.4444 30.8547 11.3655 30.7078 11.3129 30.5904C11.2603 30.4729 11.234 30.3261 11.2603 30.1792ZM13.1545 29.8268C13.1545 29.7387 13.1545 29.6212 13.1282 29.5331C13.1019 29.445 13.0493 29.3569 12.9967 29.2688C12.944 29.1807 12.8651 29.1513 12.7599 29.0926C12.6809 29.0632 12.5757 29.0339 12.4968 29.0339C12.26 29.0632 12.0232 29.1807 11.8391 29.3863C11.6812 29.5919 11.576 29.8562 11.576 30.1498C11.576 30.2379 11.576 30.3554 11.6023 30.4435C11.6286 30.5316 11.6812 30.6197 11.7338 30.7078C11.7864 30.7666 11.8654 30.8253 11.9706 30.8841C12.0495 30.9134 12.1548 30.9428 12.2337 30.9428C12.4705 30.9134 12.7073 30.7959 12.8914 30.5904C13.0756 30.3848 13.1545 30.1205 13.1545 29.8268Z" fill="#1A1818"/>
<path d="M12.2337 31.2952C12.1021 31.2952 11.9706 31.2659 11.8391 31.2365C11.7075 31.1777 11.6023 31.0896 11.497 31.0015C11.3918 30.8841 11.3392 30.7666 11.2866 30.6198C11.234 30.4729 11.2076 30.3261 11.2076 30.1792C11.2076 29.7974 11.3655 29.4157 11.6023 29.1513C11.8391 28.887 12.1811 28.7108 12.5231 28.7108C12.6546 28.7108 12.7862 28.7402 12.9177 28.7696C13.0493 28.8283 13.1545 28.9164 13.2597 29.0045C13.365 29.122 13.4176 29.2394 13.4702 29.3863C13.5228 29.5331 13.5491 29.68 13.5491 29.8268C13.5491 30.2086 13.4176 30.5904 13.1545 30.8547C12.8914 31.119 12.5757 31.2952 12.2337 31.2952ZM12.4968 28.7696C12.1811 28.7696 11.8654 28.9458 11.6286 29.1807C11.3918 29.445 11.2603 29.7974 11.2603 30.1499C11.2603 30.2967 11.2866 30.4142 11.3129 30.561C11.3655 30.6785 11.4181 30.796 11.5234 30.9134C11.6023 31.0015 11.7075 31.0896 11.8391 31.1484C11.9443 31.2071 12.0758 31.2071 12.2074 31.2071C12.5231 31.2071 12.8388 31.0309 13.0756 30.796C13.3124 30.5316 13.4439 30.1792 13.4439 29.8268C13.4439 29.68 13.4176 29.5625 13.3913 29.4157C13.3387 29.2982 13.2861 29.1807 13.1808 29.0632C13.1019 28.9751 12.9967 28.887 12.8651 28.8283C12.7599 28.7989 12.6283 28.7696 12.4968 28.7696ZM12.2337 30.9722C12.1285 30.9722 12.0495 30.9722 11.9443 30.9134C11.8654 30.8841 11.7864 30.8253 11.7075 30.7372C11.6286 30.6491 11.576 30.561 11.5497 30.4729C11.5234 30.3848 11.497 30.2673 11.5234 30.1499C11.5234 29.8562 11.6286 29.5919 11.7864 29.3569C11.9706 29.1513 12.2074 29.0045 12.4705 29.0045C12.5757 29.0045 12.6546 29.0045 12.7599 29.0632C12.8651 29.122 12.9177 29.1513 12.9967 29.2394C13.0756 29.3276 13.1282 29.4157 13.1545 29.5038C13.1808 29.5919 13.2071 29.7093 13.1808 29.8268C13.1808 30.1205 13.0756 30.3848 12.8914 30.6198C12.7336 30.8253 12.4968 30.9428 12.2337 30.9722ZM12.4968 29.0926C12.26 29.122 12.0232 29.2394 11.8654 29.445C11.7075 29.6506 11.6023 29.9149 11.6023 30.1792C11.6023 30.2673 11.6023 30.3848 11.6286 30.4729C11.6549 30.561 11.7075 30.6491 11.7601 30.7079C11.8128 30.7666 11.8917 30.8253 11.9706 30.8547C12.0495 30.8841 12.1285 30.9134 12.2337 30.8841C12.4705 30.8547 12.7073 30.7372 12.8651 30.5316C13.023 30.3261 13.1282 30.0618 13.1282 29.7974C13.1282 29.7093 13.1282 29.5919 13.1019 29.5038C13.0756 29.4157 13.023 29.3275 12.9703 29.2688C12.9177 29.2101 12.8388 29.1513 12.7599 29.122C12.6546 29.0926 12.5757 29.0926 12.4968 29.0926Z" fill="#1A1818"/>
<path d="M14.3384 28.7989H14.6541L14.5226 29.4156C14.6278 29.2101 14.7594 29.0339 14.9435 28.9164C15.1277 28.7989 15.3382 28.7402 15.5223 28.7402L15.4434 29.122H15.4171C14.9435 29.122 14.47 29.5037 14.3121 30.238L14.0753 31.1777H13.7596L14.3384 28.7989Z" fill="#1A1818"/>
<path d="M14.1016 31.2365H13.707L14.2858 28.7402H14.6804L14.5752 29.2101C14.6804 29.0633 14.812 28.9164 14.9698 28.8283C15.1277 28.7402 15.2855 28.6815 15.4697 28.6815C15.496 28.6815 15.5223 28.6815 15.5486 28.6815H15.6012L15.496 29.1514H15.4434C14.9435 29.1514 14.5226 29.5625 14.3647 30.238L14.1016 31.2365ZM13.8122 31.1484H14.049L14.2595 30.238C14.4173 29.5331 14.8646 29.0926 15.3908 29.0926L15.4697 28.7989C15.2855 28.7989 15.1014 28.887 14.9172 28.9751C14.733 29.0632 14.6278 29.2395 14.5226 29.445L14.4173 29.6212L14.6015 28.8283H14.3647L13.8122 31.1484Z" fill="#1A1818"/>
<path d="M16.259 27.8004H16.5747L15.7591 31.2071H15.4434L16.259 27.8004Z" fill="#1A1818"/>
<path d="M15.7854 31.2365H15.3908L16.2327 27.7416H16.6273V27.8004L15.7854 31.2365ZM15.496 31.1484H15.7328L16.5221 27.8297H16.2853L15.496 31.1484Z" fill="#1A1818"/>
<path d="M16.6536 30.238C16.6273 29.8562 16.7589 29.5038 16.9693 29.2101C17.2061 28.9164 17.4955 28.7696 17.8375 28.7402C18.0217 28.7402 18.1796 28.7696 18.3374 28.887C18.469 29.0045 18.6005 29.1514 18.6531 29.3276L19.0214 27.8004H19.3372L18.5216 31.2071H18.2059L18.3111 30.796C18.2059 30.9428 18.1006 31.0603 17.9428 31.119C17.8112 31.2071 17.6534 31.2365 17.4955 31.2365C17.3903 31.2365 17.2587 31.2071 17.1535 31.1484C17.0483 31.0897 16.943 31.0309 16.8641 30.9135C16.7852 30.8253 16.7326 30.7079 16.6799 30.5904C16.6536 30.5023 16.6536 30.3555 16.6536 30.238ZM18.5479 29.7975C18.5479 29.7094 18.5479 29.5919 18.4953 29.5038C18.469 29.4157 18.4163 29.3276 18.3637 29.2688C18.3111 29.2101 18.2322 29.1514 18.1533 29.122C18.0743 29.0926 17.9954 29.0633 17.8902 29.0633C17.6271 29.0926 17.3903 29.2101 17.2324 29.445C17.0746 29.6506 16.9693 29.9443 16.9957 30.238C16.9957 30.3261 16.9957 30.4142 17.022 30.5317C17.0483 30.6198 17.1009 30.7079 17.1535 30.7666C17.2061 30.8253 17.2851 30.8841 17.364 30.9135C17.4429 30.9428 17.5218 30.9722 17.6008 30.9722C17.8639 30.9428 18.1006 30.8253 18.2585 30.6198C18.4427 30.3555 18.5216 30.0911 18.5479 29.7975Z" fill="#1A1818"/>
<path d="M17.4955 31.2952C17.3639 31.2952 17.2587 31.2658 17.1535 31.2071C17.0482 31.1484 16.943 31.0603 16.8641 30.9722C16.7851 30.8841 16.7062 30.7666 16.6799 30.6197C16.6273 30.5023 16.6273 30.3554 16.6273 30.2086C16.6273 29.8268 16.7325 29.445 16.9693 29.1513C17.2061 28.8577 17.5218 28.6814 17.8638 28.6521C18.0217 28.6521 18.1795 28.6814 18.3374 28.7696C18.4689 28.8577 18.6005 29.0045 18.6531 29.1513L18.9951 27.6829H19.3897L18.5742 31.1777H18.1795L18.2584 30.8841C18.1532 31.0015 18.048 31.0896 17.9164 31.1484C17.7849 31.2071 17.627 31.2952 17.4955 31.2952ZM17.8638 28.7696C17.5481 28.7989 17.2324 28.9751 17.0219 29.2394C16.8115 29.5038 16.6799 29.8562 16.7062 30.238C16.7062 30.3554 16.7062 30.5023 16.7588 30.6197C16.7851 30.7372 16.8641 30.8547 16.943 30.9428C17.0219 31.0309 17.1009 31.119 17.2061 31.1484C17.3113 31.1777 17.4166 31.2365 17.5218 31.2071C17.6796 31.2071 17.8112 31.1484 17.969 31.0896C18.1006 31.0015 18.2321 30.9134 18.3111 30.7666L18.4163 30.6491L18.2848 31.1777H18.5215L19.3108 27.8591H19.0477L18.6531 29.4744L18.6005 29.3569C18.5478 29.1807 18.4426 29.0339 18.3111 28.9164C18.1795 28.8283 18.0217 28.7696 17.8638 28.7696ZM17.6007 30.9722C17.5218 30.9722 17.4166 30.9428 17.3376 30.9134C17.2587 30.8841 17.1798 30.8253 17.1272 30.7372C17.0745 30.6785 17.0219 30.5904 16.9956 30.4729C16.9693 30.3848 16.9693 30.2673 16.9693 30.1792C16.943 29.8855 17.0482 29.5919 17.2061 29.3569C17.3903 29.122 17.627 29.0045 17.8901 28.9751C17.9954 28.9751 18.0743 28.9751 18.1532 29.0339C18.2321 29.0632 18.3111 29.122 18.39 29.2101C18.4426 29.2982 18.4952 29.3863 18.5478 29.4744C18.5742 29.5625 18.6005 29.68 18.6005 29.7681C18.6005 30.0618 18.4952 30.3554 18.3111 30.561C18.1006 30.8253 17.8638 30.9722 17.6007 30.9722ZM17.8901 29.0926C17.6533 29.122 17.4166 29.2394 17.2587 29.445C17.1008 29.6506 17.0219 29.9149 17.0219 30.2086C17.0219 30.2967 17.0219 30.3848 17.0482 30.4729C17.0745 30.561 17.1272 30.6491 17.1798 30.7079C17.2324 30.7666 17.3113 30.8253 17.3639 30.8547C17.4429 30.8841 17.5218 30.9134 17.6007 30.9134C17.8375 30.8841 18.0743 30.7666 18.2321 30.561C18.39 30.3554 18.4952 30.0911 18.4952 29.8268C18.4952 29.7387 18.4952 29.6506 18.4426 29.5625C18.4163 29.4744 18.3637 29.3863 18.3111 29.3275C18.2584 29.2688 18.1795 29.2101 18.1006 29.1807C18.048 29.122 17.9691 29.0926 17.8901 29.0926Z" fill="#1A1818"/>
<path d="M21.0735 28.7989H21.3893L20.8105 31.2071H20.4948L21.0735 28.7989ZM21.284 27.8591H21.6523L21.5471 28.2703H21.1788L21.284 27.8591Z" fill="#1A1818"/>
<path d="M20.863 31.2365H20.4684L21.0735 28.7402H21.4682L20.863 31.2365ZM20.5473 31.1484H20.7841L21.3366 28.8283H21.0998L20.5473 31.1484ZM21.5734 28.2997H21.1525L21.2577 27.8298H21.7049L21.5734 28.2997ZM21.2314 28.2116H21.5208L21.5997 27.8885H21.3103L21.2314 28.2116Z" fill="#1A1818"/>
<path d="M22.0733 28.7989H22.389L22.2837 29.1807C22.3627 29.0632 22.4942 28.9457 22.6258 28.8576C22.7573 28.7695 22.8888 28.7402 23.0467 28.7402C23.1256 28.7402 23.2309 28.7402 23.3098 28.7695C23.3887 28.7989 23.4676 28.8576 23.5466 28.9164C23.5992 28.9751 23.6518 29.0632 23.7044 29.1807C23.7307 29.2688 23.757 29.3863 23.757 29.4744C23.757 29.5919 23.7307 29.7387 23.7044 29.8562L23.3887 31.2071H23.073L23.3887 29.8268C23.415 29.7387 23.415 29.6506 23.415 29.5625C23.415 29.5037 23.415 29.4156 23.3887 29.3569C23.3624 29.2982 23.3361 29.2394 23.2835 29.1807C23.2309 29.122 23.1782 29.0926 23.1256 29.0632C23.073 29.0339 22.9941 29.0339 22.9415 29.0339C22.7573 29.0632 22.5731 29.1513 22.4416 29.2688C22.31 29.4156 22.2048 29.5919 22.1785 29.7974L21.8628 31.1484H21.5471L22.0733 28.7989Z" fill="#1A1818"/>
<path d="M23.3887 31.2365H22.9941L23.3361 29.8268C23.3624 29.7387 23.3624 29.6506 23.3624 29.5625C23.3624 29.5038 23.3624 29.445 23.3361 29.3863C23.3098 29.3276 23.2835 29.2688 23.2308 29.2394C23.1782 29.1807 23.1256 29.1513 23.073 29.1513C23.0204 29.122 22.9678 29.122 22.9151 29.122C22.731 29.1513 22.5731 29.2394 22.4416 29.3569C22.31 29.5038 22.2311 29.68 22.1785 29.8562L21.8365 31.2365H21.4418L22.0206 28.7402H22.4153L22.3363 29.0339C22.4153 28.9164 22.5205 28.8577 22.652 28.7989C22.7573 28.7402 22.8888 28.7108 23.0204 28.7108C23.1256 28.7108 23.2045 28.7108 23.3098 28.7402C23.3887 28.7696 23.4676 28.8283 23.5466 28.9164C23.6255 29.0045 23.6781 29.0926 23.7044 29.1807C23.7307 29.2688 23.757 29.3863 23.757 29.5038C23.757 29.6212 23.7307 29.7681 23.7044 29.8855L23.3887 31.2365ZM23.073 31.1484H23.3098L23.6255 29.8268C23.6518 29.7093 23.6781 29.5919 23.6781 29.4744C23.6781 29.3863 23.6781 29.2688 23.6255 29.1807C23.5992 29.0926 23.5466 29.0045 23.4939 28.9458C23.4413 28.887 23.3624 28.8283 23.2835 28.7989C23.2045 28.7696 23.1256 28.7402 23.0204 28.7696C22.8888 28.7696 22.731 28.8283 22.6257 28.887C22.4942 28.9458 22.389 29.0632 22.31 29.1807L22.2048 29.2982L22.3363 28.7989H22.0996L21.5471 31.119H21.7838L22.0996 29.7974C22.1522 29.5919 22.2311 29.3863 22.389 29.2394C22.5468 29.0926 22.7047 29.0045 22.9151 28.9751C22.9941 28.9751 23.0467 28.9751 23.1256 29.0045C23.1782 29.0339 23.2572 29.0632 23.3098 29.122C23.3624 29.1807 23.3887 29.2394 23.415 29.2982C23.4413 29.3569 23.4413 29.445 23.4413 29.5331C23.4413 29.6212 23.4413 29.7093 23.415 29.8268L23.073 31.1484Z" fill="#1A1818"/>
<path d="M24.8883 31.7945L25.0725 31.5302C25.1777 31.6183 25.283 31.6477 25.3882 31.6477C25.5724 31.6477 25.7302 31.5302 25.9407 31.2071L25.5461 28.799H25.8881L26.1775 30.796L27.3351 28.799H27.7034L26.2301 31.2953C25.9407 31.7945 25.6776 31.9707 25.3619 31.9707C25.1777 31.9707 25.0199 31.912 24.8883 31.7945Z" fill="#1A1818"/>
<path d="M25.3356 32C25.1514 32 24.9936 31.9412 24.8357 31.8238L24.8094 31.7944L25.0199 31.4713L25.0462 31.5007C25.1251 31.5594 25.2304 31.6182 25.3619 31.6182C25.5461 31.6182 25.7039 31.5007 25.8881 31.207L25.4935 28.7695H25.8881L26.1775 30.7078L27.2825 28.7695H27.7297L26.2301 31.3245C25.9407 31.7944 25.7039 32 25.3356 32ZM24.941 31.7944C25.0725 31.8825 25.2041 31.9412 25.3619 31.9412C25.6776 31.9412 25.9144 31.7357 26.2038 31.2658L27.6245 28.8282H27.3614L26.1775 30.9133L25.8618 28.8282H25.5987L25.9933 31.207C25.7829 31.5301 25.625 31.6769 25.4145 31.6769C25.3093 31.6769 25.2041 31.6476 25.0988 31.5595L24.941 31.7944Z" fill="#1A1818"/>
<path d="M27.6771 30.1792C27.6771 29.7974 27.8086 29.445 28.0454 29.1807C28.2822 28.9164 28.5979 28.7695 28.9399 28.7402C29.0715 28.7402 29.203 28.7402 29.3083 28.7989C29.4398 28.8576 29.545 28.9164 29.624 29.0339C29.7029 29.122 29.7818 29.2688 29.8344 29.3863C29.8871 29.5331 29.9134 29.6506 29.8871 29.7974C29.8871 30.1792 29.7555 30.5316 29.5187 30.7959C29.2819 31.0603 28.9662 31.2071 28.6242 31.2365C28.4927 31.2365 28.3611 31.2071 28.2559 31.1777C28.1243 31.119 28.0191 31.0603 27.9402 30.9428C27.8613 30.8547 27.7823 30.7078 27.7297 30.5904C27.7034 30.4729 27.6771 30.3261 27.6771 30.1792ZM29.5713 29.8268C29.5713 29.7387 29.5713 29.6212 29.545 29.5331C29.5187 29.445 29.4661 29.3569 29.4135 29.2688C29.3609 29.1807 29.2819 29.1513 29.1767 29.0926C29.0715 29.0339 28.9925 29.0339 28.9136 29.0339C28.6768 29.0632 28.4401 29.1807 28.2559 29.3863C28.098 29.5919 27.9928 29.8562 27.9928 30.1498C27.9928 30.2379 27.9928 30.3554 28.0191 30.4435C28.0454 30.5316 28.098 30.6197 28.1507 30.7078C28.2033 30.7666 28.2822 30.8253 28.3874 30.8841C28.4664 30.9134 28.5716 30.9428 28.6505 30.9134C28.8873 30.8841 29.1241 30.7666 29.3083 30.561C29.4924 30.3848 29.5977 30.1205 29.5713 29.8268Z" fill="#1A1818"/>
<path d="M28.6505 31.2952C28.519 31.2952 28.3874 31.2659 28.2559 31.2365C28.1243 31.1777 28.0191 31.0896 27.9138 31.0015C27.8086 30.8841 27.756 30.7666 27.7034 30.6198C27.6508 30.4729 27.6245 30.3261 27.6245 30.1792C27.6245 29.7974 27.7823 29.4157 28.0191 29.1513C28.2559 28.887 28.5979 28.7108 28.9399 28.7108C29.0714 28.7108 29.203 28.7108 29.3345 28.7696C29.4661 28.8283 29.5713 28.9164 29.6766 29.0045C29.7818 29.122 29.8344 29.2394 29.887 29.3863C29.9396 29.5331 29.966 29.68 29.966 29.8268C29.966 30.2086 29.8344 30.5904 29.5713 30.8547C29.3082 31.119 28.9925 31.2952 28.6505 31.2952ZM28.9399 28.7696C28.6242 28.7696 28.3085 28.9458 28.0717 29.1807C27.8349 29.445 27.7034 29.7974 27.7034 30.1499C27.7034 30.2967 27.7297 30.4142 27.756 30.561C27.8086 30.6785 27.8612 30.796 27.9665 30.9134C28.0454 31.0015 28.1506 31.0896 28.2822 31.1484C28.3874 31.2071 28.519 31.2071 28.6505 31.2071C28.9662 31.2071 29.2819 31.0309 29.5187 30.796C29.7555 30.5316 29.887 30.1792 29.887 29.8268C29.887 29.68 29.8607 29.5625 29.8344 29.4157C29.7818 29.2982 29.7292 29.1807 29.6239 29.0632C29.545 28.9751 29.4398 28.887 29.3082 28.8283C29.1767 28.7989 29.0714 28.7696 28.9399 28.7696ZM28.6768 30.9722C28.5716 30.9722 28.4926 30.9722 28.3874 30.9134C28.3085 30.8841 28.2296 30.8253 28.1506 30.7372C28.0717 30.6491 28.0191 30.561 27.9928 30.4729C27.9665 30.3848 27.9402 30.2673 27.9665 30.1499C27.9665 29.8562 28.0717 29.5919 28.2296 29.3569C28.4137 29.1513 28.6505 29.0045 28.9136 29.0045C29.0188 29.0045 29.0978 29.0045 29.203 29.0632C29.2819 29.0926 29.3608 29.1513 29.4398 29.2394C29.5187 29.3276 29.5713 29.4157 29.5976 29.5038C29.6239 29.5919 29.6502 29.7093 29.6239 29.8268C29.6239 30.1205 29.5187 30.3848 29.3608 30.6198C29.1767 30.8253 28.9399 30.9428 28.6768 30.9722ZM28.9136 29.0926C28.6768 29.122 28.44 29.2394 28.2822 29.445C28.1243 29.6506 28.0191 29.9149 28.0191 30.1792C28.0191 30.2673 28.0191 30.3848 28.0454 30.4729C28.0717 30.561 28.1243 30.6491 28.1769 30.7079C28.2296 30.7666 28.3085 30.8253 28.3874 30.8547C28.4663 30.8841 28.5453 30.9134 28.6505 30.8841C28.8873 30.8547 29.1241 30.7372 29.2819 30.5316C29.4398 30.3261 29.545 30.0618 29.545 29.7974C29.545 29.7093 29.545 29.5919 29.5187 29.5038C29.4924 29.4157 29.4398 29.3275 29.3872 29.2688C29.3345 29.2101 29.2556 29.1513 29.1767 29.122C29.0978 29.0926 28.9925 29.0926 28.9136 29.0926Z" fill="#1A1818"/>
<path d="M30.3343 30.5022C30.3343 30.3847 30.3606 30.2379 30.3869 30.1204L30.7026 28.7695H31.0183L30.7026 30.1204C30.6763 30.2085 30.6763 30.2966 30.6763 30.3847C30.6763 30.4435 30.6763 30.5316 30.7026 30.5903C30.7289 30.649 30.7552 30.7078 30.8079 30.7665C30.8605 30.8252 30.9131 30.8546 30.9657 30.884C31.0183 30.9133 31.0973 30.9133 31.1499 30.9133C31.334 30.884 31.5182 30.7959 31.6497 30.6784C31.7813 30.5316 31.8865 30.3553 31.9128 30.1498L32.2285 28.7988H32.5443L31.9655 31.207H31.6761L31.7813 30.8252C31.7024 30.9721 31.5708 31.0602 31.4393 31.1483C31.3077 31.2364 31.1762 31.2658 31.0183 31.2658C30.9394 31.2658 30.8342 31.2658 30.7552 31.2364C30.6763 31.207 30.5974 31.1483 30.5185 31.0896C30.4658 31.0308 30.4132 30.9427 30.3606 30.8252C30.3606 30.7078 30.3343 30.5903 30.3343 30.5022Z" fill="#1A1818"/>
<path d="M31.0184 31.2952C30.9131 31.2952 30.8342 31.2952 30.729 31.2659C30.65 31.2365 30.5711 31.1777 30.4922 31.0896C30.4133 31.0015 30.3606 30.9134 30.3343 30.8253C30.308 30.7372 30.2817 30.6198 30.2817 30.5023C30.2817 30.3848 30.308 30.238 30.3343 30.1205L30.65 28.7402H31.0447L30.7027 30.1499C30.6763 30.238 30.6763 30.3261 30.6763 30.4142C30.6763 30.4729 30.6763 30.5316 30.7027 30.5904C30.729 30.6491 30.7553 30.7079 30.8079 30.7372C30.8605 30.796 30.8868 30.8253 30.9657 30.8253C31.0184 30.8547 31.071 30.8547 31.1236 30.8547C31.3078 30.8253 31.4656 30.7372 31.5972 30.6198C31.7287 30.4729 31.8076 30.2967 31.8603 30.0911L32.2023 28.7108H32.5969L32.0181 31.2071H31.6235L31.7024 30.9134C31.6235 31.0309 31.5182 31.0896 31.3867 31.1484C31.2815 31.2659 31.1499 31.2952 31.0184 31.2952ZM30.729 28.8283L30.4133 30.1499C30.3869 30.2673 30.3606 30.3848 30.3606 30.5023C30.3606 30.5904 30.3606 30.7079 30.3869 30.796C30.4133 30.8841 30.4659 30.9722 30.5185 31.0309C30.5711 31.0896 30.65 31.1484 30.729 31.1777C30.8079 31.2071 30.8868 31.2071 30.9921 31.2071C31.1236 31.2071 31.2815 31.1484 31.3867 31.0896C31.5182 31.0015 31.6235 30.9134 31.7024 30.796L31.8076 30.6785L31.6761 31.1777H31.9129L32.4654 28.8577H32.2286L31.9129 30.1792C31.8602 30.3848 31.7813 30.5904 31.6235 30.7372C31.4656 30.8841 31.3078 30.9722 31.0973 31.0015C31.0184 31.0015 30.9657 31.0015 30.9131 30.9722C30.8605 30.9428 30.7816 30.9134 30.7553 30.8547C30.729 30.796 30.6763 30.7372 30.65 30.6785C30.6237 30.6198 30.6237 30.5316 30.6237 30.4435C30.6237 30.3554 30.6237 30.2673 30.65 30.1792L30.9657 28.8577L30.729 28.8283Z" fill="#1A1818"/>
<path d="M33.2809 28.7989H33.5966L33.4651 29.4156C33.5703 29.2101 33.7019 29.0339 33.886 28.9164C34.0702 28.7989 34.2807 28.7402 34.4648 28.7402L34.3859 29.122H34.3596C33.886 29.122 33.4125 29.5037 33.2546 30.238L33.0178 31.1777H32.7021L33.2809 28.7989Z" fill="#1A1818"/>
<path d="M33.0441 31.2364H32.6495L33.2283 28.7401H33.6229L33.5177 29.21C33.6229 29.0338 33.7545 28.9163 33.9386 28.8282C34.0965 28.7401 34.2806 28.6814 34.4648 28.7108H34.5174L34.4122 29.1807H34.3596C33.8597 29.1807 33.4387 29.5918 33.2809 30.2673L33.0441 31.2364ZM32.7547 31.1483H32.9915L33.202 30.2379C33.3598 29.5331 33.8071 29.0926 34.3333 29.0926L34.4122 28.7989C34.228 28.7989 34.0175 28.887 33.8597 28.9751C33.7018 29.0926 33.5703 29.2394 33.4651 29.445L33.3598 29.6212L33.544 28.8282H33.3072L32.7547 31.1483Z" fill="#1A1818"/>
<path d="M36.4117 27.8004H36.7274L36.3854 29.1807C36.4643 29.0633 36.5958 28.9458 36.7011 28.8577C36.8326 28.7696 36.9642 28.7402 37.122 28.7402C37.2009 28.7402 37.3062 28.7402 37.3851 28.7696C37.464 28.7989 37.543 28.8577 37.6219 28.9164C37.6745 28.9751 37.7271 29.0633 37.7797 29.1807C37.8061 29.2688 37.8324 29.3863 37.8324 29.4744C37.8324 29.5919 37.8061 29.7387 37.7797 29.8562L37.464 31.2071H37.1483L37.464 29.8268C37.4903 29.7387 37.4903 29.6506 37.4903 29.5625C37.4903 29.5038 37.4903 29.4157 37.464 29.3569C37.4377 29.2982 37.4114 29.2395 37.3588 29.1807C37.3062 29.122 37.2536 29.0926 37.2009 29.0633C37.1483 29.0339 37.0694 29.0339 37.0168 29.0339C36.8326 29.0633 36.6485 29.1514 36.5169 29.2688C36.3854 29.4157 36.2801 29.5919 36.2538 29.7975L35.9381 31.1484H35.6224L36.4117 27.8004Z" fill="#1A1818"/>
<path d="M37.4904 31.2365H37.0958L37.4378 29.8268C37.4641 29.7387 37.4641 29.6506 37.4641 29.5625C37.4641 29.5037 37.4641 29.445 37.4378 29.3863C37.4115 29.3275 37.3852 29.2688 37.3325 29.2394C37.2799 29.2101 37.2273 29.1513 37.1747 29.1513C37.1221 29.1219 37.0694 29.1219 37.0168 29.1219C36.8327 29.1513 36.6748 29.2394 36.5433 29.3569C36.4117 29.5037 36.3065 29.6799 36.2802 29.8561L35.9382 31.2365H35.5435V31.1777L36.3591 27.7416H36.7537L36.438 29.0338C36.517 28.9164 36.6222 28.8576 36.7537 28.7989C36.859 28.7402 36.9905 28.7108 37.1221 28.7108C37.2273 28.7108 37.3062 28.7108 37.4115 28.7402C37.4904 28.7695 37.5956 28.8283 37.6482 28.9164C37.7272 29.0045 37.7798 29.0926 37.8061 29.1807C37.8324 29.2688 37.8587 29.3863 37.8587 29.5037C37.8587 29.6212 37.8324 29.768 37.8061 29.8855L37.4904 31.2365ZM37.1747 31.1484H37.4115L37.7272 29.8268C37.7535 29.7093 37.7798 29.5918 37.7798 29.4744C37.7798 29.3863 37.7798 29.2688 37.7535 29.1807C37.7272 29.0926 37.6746 29.0045 37.6219 28.9457C37.5693 28.887 37.4904 28.8283 37.4115 28.7989C37.3325 28.7695 37.2536 28.7695 37.1484 28.7695C37.0168 28.7695 36.859 28.8283 36.7537 28.887C36.6222 28.9457 36.517 29.0632 36.438 29.1807L36.3328 29.2982L36.7011 27.8004H36.4643L35.6751 31.119H35.9118L36.2276 29.7974C36.2802 29.5918 36.3591 29.3863 36.517 29.2394C36.6748 29.0926 36.8327 29.0045 37.0431 28.9751C37.1221 28.9751 37.1747 28.9751 37.2536 29.0045C37.3062 29.0338 37.3852 29.0632 37.4378 29.1219C37.4904 29.1807 37.5167 29.2394 37.543 29.2982C37.5693 29.3569 37.5693 29.445 37.5693 29.5331C37.5693 29.6212 37.5693 29.7093 37.543 29.8268L37.1747 31.1484Z" fill="#1A1818"/>
<path d="M38.1481 30.5904C38.1481 30.0618 38.5427 29.7093 39.0952 29.7093C39.3583 29.7093 39.5951 29.7681 39.8582 29.8268L39.8845 29.7681C39.9108 29.7093 39.9108 29.6212 39.9108 29.5331C39.9108 29.2394 39.7266 29.0339 39.332 29.0339C39.1215 29.0339 38.9111 29.0926 38.7269 29.1513L38.6743 28.8577C38.9111 28.7696 39.1478 28.7108 39.3846 28.7108C39.9108 28.7108 40.2265 29.0045 40.2265 29.445C40.2265 29.5625 40.2002 29.68 40.1739 29.7681L39.8582 31.1484H39.5425L39.6214 30.7666C39.5162 30.9134 39.4109 31.0015 39.2531 31.0896C39.1215 31.1777 38.9637 31.2071 38.8058 31.2071C38.7269 31.2071 38.648 31.2071 38.569 31.1777C38.4901 31.1484 38.4112 31.0896 38.3586 31.0309C38.306 30.9722 38.2533 30.8841 38.2007 30.796C38.1481 30.7666 38.1481 30.6785 38.1481 30.5904ZM39.753 30.2673L39.7793 30.0911C39.5425 30.0324 39.332 29.9737 39.0952 29.9737C38.7269 29.9737 38.4638 30.2086 38.4638 30.5316C38.4638 30.796 38.648 30.9428 38.9111 30.9428C39.0952 30.9428 39.2794 30.8547 39.4372 30.7372C39.5951 30.6491 39.7003 30.4729 39.753 30.2673Z" fill="#1A1818"/>
<path d="M38.8058 31.2952C38.7269 31.2952 38.6216 31.2952 38.5427 31.2659C38.4638 31.2365 38.3849 31.1778 38.3059 31.119C38.227 31.0603 38.1744 30.9722 38.1481 30.8841C38.1218 30.796 38.0955 30.7079 38.0955 30.5904C38.0955 30.0324 38.4901 29.68 39.0952 29.68C39.332 29.68 39.5951 29.7387 39.8319 29.7974V29.7681C39.8582 29.7093 39.8582 29.6212 39.8582 29.5625C39.8582 29.1807 39.5688 29.122 39.332 29.122C39.1215 29.122 38.9374 29.1513 38.7269 29.2394H38.7006L38.6216 28.8577H38.648C38.8847 28.7696 39.1215 28.7108 39.3583 28.7108C39.9108 28.7108 40.2265 29.0045 40.2265 29.5038C40.2265 29.6212 40.2002 29.7387 40.1739 29.8562L39.8319 31.2659H39.4372L39.4898 31.0015C39.332 31.1778 39.0689 31.2952 38.8058 31.2952ZM39.0952 29.7681C38.5427 29.7681 38.1744 30.0911 38.1744 30.5904C38.1744 30.6785 38.2007 30.7666 38.227 30.8547C38.2533 30.9428 38.3059 31.0015 38.3585 31.0603C38.4112 31.119 38.4901 31.1777 38.569 31.1777C38.6479 31.2071 38.7269 31.2071 38.8058 31.2071C38.9637 31.2071 39.0952 31.1777 39.2267 31.0896C39.3583 31.0309 39.4898 30.9134 39.5688 30.796L39.674 30.6785L39.5688 31.1777H39.8055L40.1213 29.8562C40.1476 29.7387 40.1476 29.6506 40.1476 29.5331C40.1476 29.0926 39.8582 28.8283 39.332 28.8283C39.0952 28.8283 38.8847 28.8577 38.6743 28.9751L38.7269 29.2101C38.911 29.122 39.0952 29.0926 39.3057 29.0926C39.7003 29.0926 39.9108 29.2688 39.9108 29.6212C39.9108 29.7093 39.9108 29.7681 39.8845 29.8562L39.8582 29.9443H39.8319C39.5951 29.7974 39.332 29.7681 39.0952 29.7681ZM38.911 31.0015C38.6216 31.0015 38.4375 30.8253 38.4375 30.5316C38.4375 30.1792 38.7006 29.9149 39.1215 29.9149C39.3583 29.9149 39.5951 29.9443 39.8319 30.0324H39.8582L39.8055 30.238C39.7529 30.4435 39.6214 30.6198 39.4635 30.7666C39.3057 30.9428 39.1215 31.0015 38.911 31.0015ZM39.0952 30.0324C38.7532 30.0324 38.4901 30.238 38.4901 30.561C38.4901 30.796 38.648 30.9428 38.911 30.9428C39.0952 30.9428 39.2794 30.8841 39.4109 30.7372C39.5425 30.6197 39.674 30.4435 39.7266 30.238L39.7529 30.1205C39.5425 30.0618 39.332 30.0324 39.0952 30.0324Z" fill="#1A1818"/>
<path d="M41.0684 28.7989H41.3841L41.3052 29.1807C41.3841 29.0632 41.5157 28.9457 41.6209 28.8576C41.7525 28.7695 41.884 28.7402 42.0419 28.7402C42.1208 28.7402 42.226 28.7402 42.3049 28.7695C42.3839 28.7989 42.4628 28.8576 42.5417 28.9164C42.5943 28.9751 42.647 29.0632 42.6996 29.1807C42.7259 29.2688 42.7522 29.3863 42.7522 29.4744C42.7522 29.5919 42.7259 29.7387 42.6996 29.8562L42.3839 31.2071H42.0682L42.3839 29.8268C42.4102 29.7387 42.4102 29.6506 42.4102 29.5625C42.4102 29.5037 42.4102 29.4156 42.3839 29.3569C42.3576 29.2982 42.3313 29.2394 42.2786 29.1807C42.226 29.122 42.1734 29.0926 42.1208 29.0632C42.0682 29.0339 41.9892 29.0339 41.9366 29.0339C41.7525 29.0632 41.5683 29.1513 41.4367 29.2688C41.3052 29.4156 41.2 29.5919 41.1473 29.7974L40.8316 31.1484H40.5159L41.0684 28.7989Z" fill="#1A1818"/>
<path d="M42.3839 31.2365H41.9892L42.3313 29.8268C42.3576 29.7387 42.3576 29.6506 42.3576 29.5625C42.3576 29.5038 42.3576 29.445 42.3313 29.3863C42.305 29.3276 42.2786 29.2688 42.226 29.2394C42.1734 29.2101 42.1208 29.1513 42.0682 29.1513C42.0156 29.122 41.9629 29.122 41.9103 29.122C41.7262 29.1513 41.5683 29.2394 41.4368 29.3569C41.3052 29.5038 41.2 29.68 41.1737 29.8562L40.858 31.2365H40.4633L41.0421 28.7402H41.4368L41.3578 29.0339C41.4368 28.9164 41.542 28.8577 41.6735 28.7989C41.7788 28.7402 41.9103 28.7108 42.0419 28.7108C42.1471 28.7108 42.226 28.7108 42.3313 28.7402C42.4102 28.7696 42.4891 28.8283 42.568 28.9164C42.647 29.0045 42.6996 29.0926 42.7259 29.1807C42.7522 29.2688 42.7785 29.3863 42.7785 29.5038C42.7785 29.6212 42.7522 29.7681 42.7259 29.8855L42.3839 31.2365ZM42.0945 31.1484H42.3313L42.647 29.8268C42.6733 29.7093 42.6996 29.5919 42.6996 29.4744C42.6996 29.3863 42.6996 29.2688 42.6733 29.1807C42.647 29.0926 42.5944 29.0045 42.5417 28.9458C42.4891 28.887 42.4102 28.8283 42.3313 28.7989C42.2523 28.7696 42.1734 28.7696 42.0682 28.7696C41.9366 28.7696 41.7788 28.8283 41.6735 28.887C41.542 28.9458 41.4368 29.0632 41.3578 29.1807L41.2526 29.2982L41.3578 28.7989H41.121L40.5686 31.119H40.8053L41.121 29.7974C41.1737 29.5919 41.2526 29.3863 41.4104 29.2394C41.5683 29.0926 41.7262 29.0045 41.9366 28.9751C42.0156 28.9751 42.0682 28.9751 42.1471 29.0045C42.1997 29.0339 42.2786 29.0632 42.3313 29.122C42.3839 29.1807 42.4102 29.2394 42.4365 29.2982C42.4628 29.3569 42.4628 29.445 42.4628 29.5331C42.4628 29.6212 42.4628 29.7093 42.4365 29.8268L42.0945 31.1484Z" fill="#1A1818"/>
<path d="M43.1731 30.238C43.1468 29.8562 43.2783 29.5038 43.4888 29.2101C43.7256 28.9164 44.015 28.7696 44.357 28.7402C44.5411 28.7402 44.699 28.7989 44.8568 28.887C44.9884 29.0045 45.1199 29.1514 45.1726 29.3276L45.5409 27.8004H45.8566L45.041 31.2071H44.7253L44.8305 30.796C44.7253 30.9428 44.6201 31.0603 44.4622 31.119C44.3307 31.2071 44.1728 31.2365 44.015 31.2365C43.9097 31.2365 43.7782 31.2071 43.6729 31.1484C43.5677 31.0897 43.4625 31.0309 43.3835 30.9135C43.3046 30.8253 43.252 30.7079 43.1994 30.5904C43.1731 30.5023 43.1468 30.3555 43.1731 30.238ZM45.0673 29.7975C45.0673 29.7094 45.0673 29.5919 45.0147 29.5038C44.9884 29.4157 44.9358 29.3276 44.8832 29.2688C44.8305 29.2101 44.7516 29.1514 44.6727 29.0926C44.5938 29.0633 44.5148 29.0339 44.4096 29.0339C44.1465 29.0633 43.9097 29.1807 43.7519 29.4157C43.594 29.6212 43.4888 29.9149 43.5151 30.2086C43.5151 30.2967 43.5151 30.3848 43.5414 30.5023C43.5677 30.5904 43.6203 30.6785 43.6729 30.7372C43.7256 30.796 43.8045 30.8547 43.8834 30.9135C43.9623 30.9428 44.0413 30.9722 44.1202 30.9722C44.3833 30.9428 44.6201 30.8253 44.7779 30.6198C44.9621 30.3555 45.041 30.0911 45.0673 29.7975Z" fill="#1A1818"/>
<path d="M44.015 31.2952C43.8834 31.2952 43.7782 31.2658 43.673 31.2071C43.5677 31.1484 43.4625 31.0603 43.3836 30.9722C43.3046 30.8841 43.2257 30.7666 43.1994 30.6197C43.1468 30.5023 43.1468 30.3554 43.1468 30.2086C43.1468 29.8268 43.252 29.445 43.4888 29.1513C43.7256 28.8577 44.0413 28.6814 44.3833 28.6521C44.5412 28.6521 44.699 28.6814 44.8569 28.7696C44.9884 28.8577 45.12 29.0045 45.1989 29.1513L45.5409 27.6829H45.9355L45.12 31.1777H44.7253L44.8043 30.8841C44.699 31.0015 44.5938 31.0896 44.4622 31.1484C44.2781 31.2659 44.1465 31.2952 44.015 31.2952ZM44.357 28.7696C44.0413 28.7989 43.7256 28.9751 43.5151 29.2394C43.3046 29.5038 43.1731 29.8562 43.1994 30.238C43.1994 30.3554 43.1994 30.5023 43.252 30.6197C43.2783 30.7372 43.3573 30.8547 43.4362 30.9428C43.5151 31.0309 43.594 31.119 43.6993 31.1484C43.8045 31.2071 43.9097 31.2365 44.015 31.2071C44.1728 31.2071 44.3044 31.1484 44.4622 31.0896C44.5938 31.0015 44.7253 30.9134 44.8043 30.7666L44.9095 30.6491L44.7779 31.1777H45.0147L45.804 27.8591H45.5672L45.1726 29.4744L45.12 29.3569C45.0673 29.1807 44.9621 29.0339 44.8306 28.9164C44.699 28.7989 44.5412 28.7696 44.357 28.7696ZM44.0939 30.9722C44.015 30.9722 43.9097 30.9428 43.8308 30.9134C43.7519 30.8841 43.673 30.8253 43.6203 30.7372C43.5677 30.6785 43.5151 30.5904 43.4888 30.4729C43.4625 30.3848 43.4625 30.2673 43.4625 30.1792C43.4362 29.8855 43.5414 29.5919 43.6993 29.3569C43.8834 29.122 44.1202 29.0045 44.3833 28.9751C44.4885 28.9751 44.5675 28.9751 44.6464 29.0339C44.7253 29.0632 44.8043 29.122 44.8832 29.2101C44.9358 29.2982 44.9884 29.3863 45.041 29.4744C45.0673 29.5625 45.0937 29.68 45.0937 29.7681C45.0937 30.0618 44.9884 30.3554 44.8043 30.561C44.6201 30.8253 44.357 30.9722 44.0939 30.9722ZM44.3833 29.0926C44.1465 29.122 43.9097 29.2394 43.7519 29.445C43.594 29.6506 43.5151 29.9149 43.5151 30.2086C43.5151 30.2967 43.5151 30.3848 43.5414 30.4729C43.5677 30.561 43.594 30.6491 43.673 30.7079C43.7256 30.7666 43.8045 30.8253 43.8571 30.8547C43.9361 30.8841 44.015 30.9134 44.0939 30.9134C44.3307 30.8841 44.5675 30.7666 44.7253 30.561C44.8832 30.3554 44.9884 30.0911 44.9884 29.8268C44.9884 29.7387 44.9884 29.6506 44.9358 29.5625C44.9095 29.4744 44.8569 29.3863 44.8043 29.3275C44.7516 29.2688 44.6727 29.2101 44.5938 29.1807C44.5675 29.122 44.4885 29.0926 44.3833 29.0926Z" fill="#1A1818"/>
</svg>
